<svg width="86" height="86" viewBox="0 0 86 86" fill="none" xmlns="http://www.w3.org/2000/svg">
<path d="M43.0001 83.9995C65.6436 83.9995 83.9998 65.6433 83.9998 42.9998C83.9998 20.3562 65.6436 2 43.0001 2C20.3565 2 2.00031 20.3562 2.00031 42.9998C2.00031 65.6433 20.3565 83.9995 43.0001 83.9995Z" fill="#DEDEDE"/>
<mask id="mask0" mask-type="alpha" maskUnits="userSpaceOnUse" x="2" y="2" width="82" height="82">
<circle cx="43" cy="43" r="41" fill="#C4C4C4"/>
</mask>
<g mask="url(#mask0)">
</g>
<mask id="mask1" mask-type="alpha" maskUnits="userSpaceOnUse" x="2" y="1" width="82" height="82">
<circle cx="43" cy="42" r="41" fill="#C4C4C4"/>
</mask>
<g mask="url(#mask1)">
<path d="M38.6031 45.2179L37.4889 50.8162L33.7561 52.1L35.9651 86.949L50.1681 86.8685L50.8315 51.4417L48.4475 50.6917L47.2326 44.9807L38.6031 45.2179Z" fill="#AE5D29"/>
<mask id="mask2" mask-type="alpha" maskUnits="userSpaceOnUse" x="20" y="14" width="46" height="57">
<path d="M48.4546 47.2825V51.4857H49.3636C58.401 51.4857 65.7273 58.8538 65.7273 67.9429V70H20.2727V67.9429C20.2727 58.8538 27.599 51.4857 36.6364 51.4857H37.5455V47.2825C33.6279 45.4108 30.8119 41.5856 30.3421 37.0586C29.0183 36.8704 28 35.7262 28 34.3429V31.1429C28 29.7838 28.9829 28.6556 30.2727 28.4379V27.0286C30.2727 19.9593 35.9709 14.2286 43 14.2286C50.0291 14.2286 55.7273 19.9593 55.7273 27.0286V28.4379C57.0172 28.6556 58 29.7838 58 31.1429V34.3429C58 35.7262 56.9818 36.8704 55.6579 37.0586C55.1881 41.5856 52.3721 45.4108 48.4546 47.2825Z" fill="white"/>
</mask>
<g mask="url(#mask2)">
<path d="M48.4546 47.2825V51.4857H49.3636C58.401 51.4857 65.7273 58.8538 65.7273 67.9429V70H20.2727V67.9429C20.2727 58.8538 27.599 51.4857 36.6364 51.4857H37.5455V47.2825C33.6279 45.4108 30.8119 41.5856 30.3421 37.0586C29.0183 36.8704 28 35.7262 28 34.3429V31.1429C28 29.7838 28.9829 28.6556 30.2727 28.4379V27.0286C30.2727 19.9593 35.9709 14.2286 43 14.2286C50.0291 14.2286 55.7273 19.9593 55.7273 27.0286V28.4379C57.0171 28.6556 58 29.7838 58 31.1429V34.3429C58 35.7262 56.9818 36.8704 55.6579 37.0586C55.1881 41.5856 52.3721 45.4108 48.4546 47.2825Z" fill="#D0C6AC"/>
<path d="M80.2727 14.2286H20.2727V78.2286H80.2727V14.2286Z" fill="#AE5D29"/>
<path fill-rule="evenodd" clip-rule="evenodd" d="M55.7273 32.2857V37.5428C55.7273 44.6121 50.0291 50.3428 43 50.3428C35.9709 50.3428 30.2727 44.6121 30.2727 37.5428V32.2857V35.7143C30.2727 42.7835 35.9709 48.5143 43 48.5143C50.0291 48.5143 55.7273 42.7835 55.7273 35.7143V32.2857Z" fill="black" fill-opacity="0.1"/>
</g>
<mask id="mask3" mask-type="alpha" maskUnits="userSpaceOnUse" x="38" y="39" width="10" height="8">
<path fill-rule="evenodd" clip-rule="evenodd" d="M38.4564 45.5118C38.7109 42.3146 39.4169 39.6018 42.9991 39.6001C46.5813 39.5984 47.2993 42.33 47.5441 45.5415C47.5638 45.7999 47.3577 46.0001 47.0993 46.0001C45.5796 46.0001 44.9705 45.5444 42.9976 45.5429C41.0247 45.5415 39.9902 46.0001 38.9301 46.0001C38.6702 46.0001 38.4309 45.8317 38.4564 45.5118Z" fill="white"/>
</mask>
<g mask="url(#mask3)">
<path fill-rule="evenodd" clip-rule="evenodd" d="M38.4564 45.5118C38.7109 42.3146 39.4169 39.6018 42.9991 39.6001C46.5813 39.5984 47.2993 42.33 47.5441 45.5415C47.5638 45.7999 47.3577 46.0001 47.0993 46.0001C45.5796 46.0001 44.9705 45.5444 42.9976 45.5429C41.0247 45.5415 39.9902 46.0001 38.9301 46.0001C38.6702 46.0001 38.4309 45.8317 38.4564 45.5118Z" fill="black" fill-opacity="0.7"/>
<path d="M45.5 37.0858H40.7272C40.0996 37.0858 39.5909 37.5974 39.5909 38.2286V39.6C39.5909 40.2312 40.0996 40.7429 40.7272 40.7429H45.5C46.1276 40.7429 46.6363 40.2312 46.6363 39.6V38.2286C46.6363 37.5974 46.1276 37.0858 45.5 37.0858Z" fill="white"/>
<path d="M41.8636 48.9714C43.2443 48.9714 44.3636 47.8458 44.3636 46.4572C44.3636 45.0686 43.2443 43.9429 41.8636 43.9429C40.4829 43.9429 39.3636 45.0686 39.3636 46.4572C39.3636 47.8458 40.4829 48.9714 41.8636 48.9714Z" fill="#FF4F6D"/>
<path d="M44.1364 48.9714C45.5171 48.9714 46.6364 47.8458 46.6364 46.4572C46.6364 45.0686 45.5171 43.9429 44.1364 43.9429C42.7556 43.9429 41.6364 45.0686 41.6364 46.4572C41.6364 47.8458 42.7556 48.9714 44.1364 48.9714Z" fill="#FF4F6D"/>
</g>
<path fill-rule="evenodd" clip-rule="evenodd" d="M40.2727 35.7143C40.2727 36.7242 41.4938 37.5429 43 37.5429C44.5062 37.5429 45.7273 36.7242 45.7273 35.7143" fill="black" fill-opacity="0.16"/>
<mask id="mask4" mask-type="alpha" maskUnits="userSpaceOnUse" x="33" y="29" width="8" height="5">
<path fill-rule="evenodd" clip-rule="evenodd" d="M37.0909 32.7538C39.275 32.7538 40.2727 33.7713 40.2727 32.1855C40.2727 30.5998 38.8482 29.5428 37.0909 29.5428C35.3336 29.5428 33.9091 30.5998 33.9091 32.1855C33.9091 33.7713 34.9068 32.7538 37.0909 32.7538Z" fill="white"/>
</mask>
<g mask="url(#mask4)">
<path fill-rule="evenodd" clip-rule="evenodd" d="M37.0909 32.7538C39.275 32.7538 40.2727 33.7713 40.2727 32.1855C40.2727 30.5998 38.8482 29.5428 37.0909 29.5428C35.3336 29.5428 33.9091 30.5998 33.9091 32.1855C33.9091 33.7713 34.9068 32.7538 37.0909 32.7538Z" fill="white"/>
<path d="M37.0909 33.2C37.844 33.2 38.4545 32.586 38.4545 31.8286C38.4545 31.0712 37.844 30.4572 37.0909 30.4572C36.3378 30.4572 35.7273 31.0712 35.7273 31.8286C35.7273 32.586 36.3378 33.2 37.0909 33.2Z" fill="black" fill-opacity="0.7"/>
</g>
<mask id="mask5" mask-type="alpha" maskUnits="userSpaceOnUse" x="45" y="29" width="8" height="5">
<path fill-rule="evenodd" clip-rule="evenodd" d="M48.9091 32.7538C51.0932 32.7538 52.0909 33.7713 52.0909 32.1855C52.0909 30.5998 50.6664 29.5428 48.9091 29.5428C47.1518 29.5428 45.7273 30.5998 45.7273 32.1855C45.7273 33.7713 46.725 32.7538 48.9091 32.7538Z" fill="white"/>
</mask>
<g mask="url(#mask5)">
<path fill-rule="evenodd" clip-rule="evenodd" d="M48.9091 32.7538C51.0932 32.7538 52.0909 33.7713 52.0909 32.1855C52.0909 30.5998 50.6664 29.5428 48.9091 29.5428C47.1518 29.5428 45.7273 30.5998 45.7273 32.1855C45.7273 33.7713 46.725 32.7538 48.9091 32.7538Z" fill="white"/>
<path d="M48.9091 33.2C49.6622 33.2 50.2727 32.586 50.2727 31.8286C50.2727 31.0712 49.6622 30.4572 48.9091 30.4572C48.156 30.4572 47.5454 31.0712 47.5454 31.8286C47.5454 32.586 48.156 33.2 48.9091 33.2Z" fill="black" fill-opacity="0.7"/>
</g>
<path d="M33.9036 28.6578C34.2434 26.4811 37.1042 24.9963 39.1735 25.9545C39.4016 26.0601 39.6715 25.9598 39.7765 25.7305C39.8815 25.5012 39.7818 25.2297 39.5537 25.1241C36.9429 23.915 33.4399 25.7332 33.0055 28.516C32.9666 28.7654 33.136 28.9994 33.384 29.0385C33.632 29.0777 33.8647 28.9072 33.9036 28.6578Z" fill="black" fill-opacity="0.6"/>
<path d="M52.0965 28.6578C51.7566 26.4811 48.8958 24.9963 46.8265 25.9545C46.5985 26.0601 46.3285 25.9598 46.2235 25.7305C46.1185 25.5012 46.2183 25.2297 46.4463 25.1241C49.0571 23.915 52.5601 25.7332 52.9946 28.516C53.0335 28.7654 52.864 28.9994 52.616 29.0385C52.368 29.0777 52.1354 28.9072 52.0965 28.6578Z" fill="black" fill-opacity="0.6"/>
<path d="M32.9089 61.8231C39.1231 64.8359 45.5156 65.4684 52.2449 61.9936L52.0155 88.0033C49.1141 88.654 46.0976 89 43 89C39.4356 89 35.9778 88.5445 32.6808 87.6896L32.9089 61.8231Z" fill="#730707"/>
<path d="M49.6463 51.1184L60.4716 54.0707C63.2787 54.9373 65.7869 56.5972 65.8671 59.5801L66.4608 81.6255C63.9938 83.35 61.3281 84.8087 58.5052 85.9633L57.8143 73.7714L55.9185 86.9209C51.8573 88.2695 47.5142 89 43.0002 89C42.8823 89 42.7654 88.9965 42.6477 88.9955L42.6432 77.8187L49.6463 51.1184Z" fill="#EEF3F7"/>
<path d="M49.5432 51.0418L50.9697 51.6172L55.8357 58.9223L50.1321 58.8305L53.6674 60.7223L42.6433 77.8188L49.5432 51.0418Z" fill="white"/>
<path d="M36.982 51.0068L26.1062 53.7677C23.284 54.585 20.7474 56.2002 20.6143 59.1812L19.6114 81.6756C22.0568 83.3772 24.6964 84.8185 27.49 85.9617L28.4157 73.5124L30.1093 86.9301C34.0567 88.2375 38.2703 88.9587 42.6475 88.9957L42.643 77.8189L36.982 51.0068Z" fill="white"/>
<path d="M37.0864 50.9318L35.3855 51.5833L30.6561 58.7001L36.3607 58.7093L32.7925 60.5383L42.6433 77.8186L37.0864 50.9318Z" fill="#EEF3F7"/>
<path d="M57.8188 74.0917C56.219 73.8154 55.1458 72.2944 55.4219 70.6945C55.6981 69.0948 57.2193 68.0211 58.8191 68.2973C60.4192 68.5735 61.4923 70.095 61.2162 71.6951C60.9399 73.2949 59.4187 74.368 57.8188 74.0917Z" fill="#FEFEFE"/>
<path d="M57.8479 73.9229C56.3412 73.6626 55.3304 72.2307 55.5907 70.7238C55.8509 69.2168 57.2832 68.2059 58.7903 68.4662C60.2972 68.7266 61.3076 70.1592 61.0475 71.6659C60.7869 73.1729 59.355 74.1831 57.8479 73.9229Z" fill="#730707"/>
<path d="M58.0582 72.7046C57.2249 72.5608 56.6653 71.7675 56.8093 70.9342C56.9531 70.1003 57.7461 69.5415 58.5794 69.6853C59.4133 69.8293 59.9724 70.6216 59.8284 71.4555C59.6848 72.289 58.8921 72.8484 58.0582 72.7046Z" fill="#EBECEC"/>
<path d="M58.2384 69.8493L58.9117 69.9654L59.2737 67.869L58.6007 67.7529L58.2384 69.8493Z" fill="#FEFEFE"/>
<path d="M35.6924 74.6733L36.9539 74.423C37.4898 74.3165 37.9339 74.0008 38.2169 73.5775C38.4996 73.1542 38.6224 72.6235 38.5158 72.0874L37.0324 64.6133C36.4725 61.7929 34.266 60.3546 31.7447 60.0359C30.7785 59.9135 29.7656 59.958 28.7845 60.1526C27.8026 60.3467 26.8506 60.6923 26.0049 61.1741C23.8021 62.4286 22.3174 64.5979 22.8783 67.4229L24.3617 74.8972C24.4682 75.4331 24.7843 75.8769 25.2073 76.16L25.2082 76.1597C25.6317 76.443 26.1618 76.5652 26.6975 76.4589L27.9583 76.2086L27.8551 75.6889L26.5941 75.9392C26.201 76.0172 25.8115 75.9273 25.5015 75.7203L25.5016 75.7201C25.1913 75.5121 24.9594 75.1866 24.8812 74.7942L23.3978 67.3199C22.889 64.7566 24.2494 62.7809 26.2649 61.6337C27.0614 61.1798 27.9599 60.8541 28.8872 60.6701C29.8143 60.4864 30.7693 60.4449 31.6794 60.5597C33.9869 60.8514 36.005 62.1584 36.5125 64.7167L37.9964 72.1911C38.0742 72.5838 37.9839 72.9728 37.7767 73.2836C37.5689 73.5937 37.2432 73.8256 36.8505 73.9033L35.5891 74.1536L35.6924 74.6733Z" fill="#EBB325"/>
<path d="M37.4322 65.721L37.2056 64.5792C36.6287 61.6713 34.3585 60.1894 31.7662 59.8614C30.7815 59.7372 29.75 59.7814 28.7504 59.98C27.7506 60.178 26.7805 60.5303 25.9186 61.0207C23.653 62.3111 22.1272 64.5446 22.705 67.4574L22.932 68.5992L23.7976 68.427L23.571 67.2854C23.0798 64.8097 24.3987 62.8984 26.3516 61.7861C27.1322 61.3418 28.0123 61.0228 28.9216 60.8425C29.8307 60.662 30.7668 60.6215 31.6584 60.734C33.8945 61.0166 35.8492 62.2799 36.3399 64.7509L36.5664 65.8927L37.4322 65.721Z" fill="#4D4D4D"/>
<path d="M26.9581 76.521L27.6328 76.3869C27.8021 76.577 28.0643 76.6747 28.3314 76.6217C28.733 76.5421 28.9939 76.1521 28.9141 75.7503C28.8347 75.3493 28.4447 75.0882 28.0432 75.1681C27.7755 75.2211 27.5707 75.4119 27.4871 75.652L26.8125 75.7857L26.9581 76.521Z" fill="#730707"/>
<path d="M36.2286 74.6809L35.5544 74.815C35.4706 75.0549 35.2658 75.2456 34.9985 75.2986C34.5971 75.3781 34.2073 75.1174 34.1275 74.7157C34.0481 74.3147 34.3088 73.9245 34.71 73.8449C34.9773 73.7919 35.2398 73.8899 35.4085 74.0797L36.083 73.9457L36.2286 74.6809Z" fill="#730707"/>
<path d="M29.1609 59.9123L28.9035 58.6155L28.3918 58.7173L27.8809 58.8186L28.1412 60.128C28.3361 60.071 28.5334 60.0228 28.7326 59.9834C28.8745 59.955 29.0174 59.9315 29.1609 59.9123Z" fill="#666666"/>
<path d="M28.0569 75.7994C28.1787 75.7752 28.2573 75.6569 28.2331 75.536C28.2091 75.4144 28.0914 75.3353 27.9697 75.3595C27.8479 75.3836 27.7693 75.5015 27.7933 75.6231C27.8175 75.7443 27.9354 75.8236 28.0569 75.7994Z" fill="#A86868"/>
<path d="M34.7281 74.473C34.8493 74.449 34.9281 74.331 34.904 74.2099C34.8798 74.0882 34.7622 74.0092 34.6405 74.0332C34.5188 74.0574 34.4401 74.1753 34.4643 74.2972C34.4882 74.4181 34.6062 74.4971 34.7281 74.473Z" fill="#A86868"/>
<path d="M57.9764 72.6904C57.1879 72.5542 56.6592 71.8045 56.7952 71.0159C56.9313 70.2278 57.6806 69.6989 58.4692 69.8349C59.2575 69.971 59.7865 70.7204 59.6505 71.5087C59.5144 72.2975 58.7647 72.8265 57.9764 72.6904Z" fill="#FEFEFE"/>
<path d="M35.4027 51.6136C35.3799 51.6138 27.417 51.6799 28.7621 58.6464L28.0217 58.788C26.5054 50.9342 35.3687 50.8618 35.394 50.8615L35.4027 51.6136Z" fill="#4D4D4D"/>
<path d="M51.2921 50.8974C52.5911 50.9323 55.1029 51.2864 57.0355 53.6378C58.9271 55.9388 60.2532 60.1645 59.2615 67.9122L58.515 67.8177C59.4748 60.3187 58.2345 56.2815 56.4544 54.1157C54.7151 51.9999 52.4475 51.681 51.2743 51.6495L51.2921 50.8974Z" fill="#4D4D4D"/>
<mask id="mask6" mask-type="alpha" maskUnits="userSpaceOnUse" x="13" y="6" width="60" height="64">
<path d="M73 6H13V70H73V6Z" fill="white"/>
</mask>
<g mask="url(#mask6)">
<path fill-rule="evenodd" clip-rule="evenodd" d="M35.7045 15.7062C33.4776 17.0793 31.4967 18.8748 30.1789 20.9395C29.5512 21.9229 29.0348 22.9599 28.5537 24.0017C28.3123 24.5245 28.092 25.0537 27.8809 25.5861C27.7476 25.9222 27.5429 26.2845 27.7354 26.6372C27.8529 26.5682 27.8976 26.593 27.8237 26.7166C28.4355 26.8844 29.286 26.4115 29.8161 26.2368C30.8986 25.8801 31.9819 25.5434 33.0906 25.2467C34.1035 24.9757 36.3632 24.535 37.2475 24.3301L37.8694 23.6492L38.1108 24.096C38.6013 24.0581 41.3105 23.6486 41.3105 23.6486L41.6128 22.912C42.0029 23.315 42.2807 23.5243 42.2807 23.5243C42.8616 23.4767 45.3838 23.4197 45.9818 23.4269C45.9818 23.4269 47.6501 23.486 48.0547 23.502L48.4336 23.3561L48.5583 23.6022C48.8887 23.7374 50.8862 24.423 51.2805 24.5458L51.8593 24.3388C52.1137 24.9544 52.7546 24.8768 53.2858 25.363C53.9883 26.0062 55.4604 26.4636 56.1631 27.023C56.4148 27.2233 56.6499 27.4326 56.8864 27.646C57.1491 27.8831 57.1103 27.9178 57.1956 28.1897C57.2212 28.2711 57.4809 28.6923 57.5915 28.7268C57.9854 28.8494 55.2838 21.7585 54.5422 20.8519C53.7768 19.9161 48.8125 13.6167 42.23 13.8229" fill="black" fill-opacity="0.16"/>
<mask id="mask7" mask-type="alpha" maskUnits="userSpaceOnUse" x="18" y="9" width="50" height="61">
<path fill-rule="evenodd" clip-rule="evenodd" d="M55.6889 26.027C55.7143 26.3575 55.7273 26.6915 55.7273 27.0286V35.7143C55.7273 40.8204 52.7545 45.2282 48.4545 47.2825V51.4857H49.3636C49.7101 51.4857 49.8268 51.4965 50.1679 51.5179C46.7785 57.7706 45.9145 63.0455 49.9255 66.2384C50.3113 66.5133 50.59 66.6466 50.638 66.6693C51.1773 66.9248 51.7374 67.2041 52.3351 67.3446C53.3856 67.5916 54.5925 67.2595 55.6434 67.1267C56.1233 67.0661 56.6017 67.0287 57.0858 67.0271C57.6687 67.0251 58.2701 67.0464 58.709 67.4151C59.1372 67.7748 59.0825 69.0604 57.8282 69.6626C58.7598 70.0866 59.8764 69.102 60.2572 68.4792C60.5905 67.9342 60.8468 67.3437 60.9877 66.741C61.1632 65.9905 61.1745 65.2038 61.0372 64.4521C60.7514 62.8869 60.0881 61.3818 59.6366 59.8527C59.4702 59.289 59.2534 58.6721 59.1589 58.0952C59.1333 57.9387 59.1027 57.3603 59.1268 57.2393C59.1446 57.1494 59.1401 57.0572 59.4484 56.9705C60.3383 56.7199 61.2681 56.3002 61.9149 55.7089C62.6796 55.0099 63.0782 54.1018 63.3996 53.1993C63.9088 51.7702 64.2003 50.24 64.3342 48.7559C64.3621 48.4476 64.3778 48.1398 64.3833 47.8308C64.3865 47.6441 64.3638 47.4316 64.3851 47.2446C64.4199 46.9383 64.3727 47.0189 64.6685 46.8163C65.6362 46.1535 66.3912 45.1882 66.8754 44.2173C67.636 42.6922 67.735 41.0841 67.1176 39.5391C66.6056 38.2576 65.7935 36.9711 64.5285 36.1458C64.0429 35.8289 63.5305 35.5416 63.0262 35.2476C62.7516 35.0874 62.1063 34.8783 61.9113 34.6723C61.7748 34.5282 61.992 33.8056 62.0195 33.5619C62.1395 32.4995 62.0014 31.4688 61.7547 30.4313C61.2108 28.1438 59.02 24.4545 58.1404 22.28C57.3849 20.4121 56.2913 9.63998 43.3606 9.7026C30.4299 9.76523 28.0951 21.1858 26.3445 23.3197C24.4435 25.637 22.5244 30.0403 23.8188 34.1224C22.568 35.7047 19.7147 38.01 18.9967 40.3144C18.5462 41.7602 18.5655 43.3704 19.1429 44.7732C19.4696 45.5667 19.9375 46.2858 20.4865 46.9765C20.9674 47.5816 21.5019 48.1539 21.9677 48.7681C22.2488 49.1387 22.3242 49.2295 22.2182 49.6865C22.0092 50.587 21.5775 51.4522 21.2032 52.3093C20.6232 53.6372 20.1358 54.8736 20.0636 56.2894C19.9949 57.6371 20.3646 61.4717 24.2139 63.7317C24.6648 63.9964 25.1098 64.227 25.5871 64.4423C25.3394 63.6663 25.6203 60.8941 26.1196 59.8637C26.2468 60.2182 26.463 60.5593 26.6959 60.869C27.0594 61.3525 27.9173 62.5624 29.002 62.6186C28.5619 61.9366 28.0884 61.4763 27.9512 60.6534C28.8549 61.1014 30.1407 61.5098 31.1924 61.4723C31.9662 61.4447 33.107 61.0563 33.6818 60.5709C31.7792 60.8742 29.9725 60.2435 29.2459 58.8958C29.0942 58.6145 28.9792 58.3197 28.9123 58.0134C28.8174 57.5793 28.6678 56.8835 28.8688 56.4827C28.9176 56.3854 28.9976 56.286 29.0924 56.188C29.0774 56.1701 29.0626 56.1521 29.0478 56.1341C30.3417 55.0401 31.9658 53.2988 32.8353 52.0269C32.8513 51.999 32.8673 51.9709 32.8831 51.9428H32.8921C32.8986 51.9332 32.905 51.9236 32.9113 51.914C34.1079 51.6338 35.3549 51.4857 36.6364 51.4857H37.5455V47.2825C33.2456 45.2282 30.2727 40.8204 30.2727 35.7143V27.0286C30.2727 26.4657 30.3089 25.9113 30.3789 25.3676C31.2747 25.0789 32.174 24.8063 33.0906 24.561C34.1035 24.29 36.3632 23.8493 37.2475 23.6444L37.8694 22.9635L38.1108 23.4103C38.6013 23.3724 41.3105 22.9629 41.3105 22.9629L41.6128 22.2262C42.0029 22.6293 42.2807 22.8386 42.2807 22.8386C42.8616 22.7909 45.3838 22.734 45.9818 22.7412C45.9818 22.7412 47.6501 22.8003 48.0547 22.8163L48.4335 22.6704L48.5583 22.9165C48.8887 23.0517 50.8862 23.7373 51.2805 23.8601L51.8593 23.6531C52.1137 24.2687 52.7546 24.1911 53.2858 24.6773C53.8546 25.1981 54.9279 25.5971 55.6889 26.027Z" fill="white"/>
</mask>
<g mask="url(#mask7)">
<path fill-rule="evenodd" clip-rule="evenodd" d="M55.6889 26.027C55.7143 26.3575 55.7273 26.6915 55.7273 27.0286V35.7143C55.7273 40.8204 52.7545 45.2282 48.4545 47.2825V51.4857H49.3636C49.7101 51.4857 49.8268 51.4965 50.1679 51.5179C46.7785 57.7706 45.9145 63.0455 49.9255 66.2384C50.3113 66.5133 50.59 66.6466 50.638 66.6693C51.1773 66.9248 51.7374 67.2041 52.3351 67.3446C53.3856 67.5916 54.5925 67.2595 55.6434 67.1267C56.1233 67.0661 56.6017 67.0287 57.0858 67.0271C57.6687 67.0251 58.2701 67.0464 58.709 67.4151C59.1372 67.7748 59.0825 69.0604 57.8282 69.6626C58.7598 70.0866 59.8764 69.102 60.2572 68.4792C60.5905 67.9342 60.8468 67.3437 60.9877 66.741C61.1632 65.9905 61.1745 65.2038 61.0372 64.4521C60.7514 62.8869 60.0881 61.3818 59.6366 59.8527C59.4702 59.289 59.2534 58.6721 59.1589 58.0952C59.1333 57.9387 59.1027 57.3603 59.1268 57.2393C59.1446 57.1494 59.1401 57.0572 59.4484 56.9705C60.3383 56.7199 61.2681 56.3002 61.9149 55.7089C62.6796 55.0099 63.0782 54.1018 63.3996 53.1993C63.9088 51.7702 64.2003 50.24 64.3342 48.7559C64.3621 48.4476 64.3778 48.1398 64.3833 47.8308C64.3865 47.6441 64.3638 47.4316 64.3851 47.2446C64.4199 46.9383 64.3727 47.0189 64.6685 46.8163C65.6362 46.1535 66.3912 45.1882 66.8754 44.2173C67.636 42.6922 67.735 41.0841 67.1176 39.5391C66.6056 38.2576 65.7935 36.9711 64.5285 36.1458C64.0429 35.8289 63.5305 35.5416 63.0262 35.2476C62.7516 35.0874 62.1063 34.8783 61.9113 34.6723C61.7748 34.5282 61.992 33.8056 62.0195 33.5619C62.1395 32.4995 62.0014 31.4688 61.7547 30.4313C61.2108 28.1438 59.02 24.4545 58.1404 22.28C57.3849 20.4121 56.2913 9.63998 43.3606 9.7026C30.4299 9.76523 28.0951 21.1858 26.3445 23.3197C24.4435 25.637 22.5244 30.0403 23.8188 34.1224C22.568 35.7047 19.7147 38.01 18.9967 40.3144C18.5462 41.7602 18.5655 43.3704 19.1429 44.7732C19.4696 45.5667 19.9375 46.2858 20.4865 46.9765C20.9674 47.5816 21.5019 48.1539 21.9677 48.7681C22.2488 49.1387 22.3242 49.2295 22.2182 49.6865C22.0092 50.587 21.5775 51.4522 21.2032 52.3093C20.6232 53.6372 20.1358 54.8736 20.0636 56.2894C19.9949 57.6371 20.3646 61.4717 24.2139 63.7317C24.6648 63.9964 25.1098 64.227 25.5871 64.4423C25.3394 63.6663 25.6203 60.8941 26.1196 59.8637C26.2468 60.2182 26.463 60.5593 26.6959 60.869C27.0594 61.3525 27.9173 62.5624 29.002 62.6186C28.5619 61.9366 28.0884 61.4763 27.9512 60.6534C28.8549 61.1014 30.1407 61.5098 31.1924 61.4723C31.9662 61.4447 33.107 61.0563 33.6818 60.5709C31.7792 60.8742 29.9725 60.2435 29.2459 58.8958C29.0942 58.6145 28.9792 58.3197 28.9123 58.0134C28.8174 57.5793 28.6678 56.8835 28.8688 56.4827C28.9176 56.3854 28.9976 56.286 29.0924 56.188C29.0774 56.1701 29.0626 56.1521 29.0478 56.1341C30.3417 55.0401 31.9658 53.2988 32.8353 52.0269C32.8513 51.999 32.8673 51.9709 32.8831 51.9428H32.8921C32.8986 51.9332 32.905 51.9236 32.9113 51.914C34.1079 51.6338 35.3549 51.4857 36.6364 51.4857H37.5455V47.2825C33.2456 45.2282 30.2727 40.8204 30.2727 35.7143V27.0286C30.2727 26.4657 30.3089 25.9113 30.3789 25.3676C31.2747 25.0789 32.174 24.8063 33.0906 24.561C34.1035 24.29 36.3632 23.8493 37.2475 23.6444L37.8694 22.9635L38.1108 23.4103C38.6013 23.3724 41.3105 22.9629 41.3105 22.9629L41.6128 22.2262C42.0029 22.6293 42.2807 22.8386 42.2807 22.8386C42.8616 22.7909 45.3838 22.734 45.9818 22.7412C45.9818 22.7412 47.6501 22.8003 48.0547 22.8163L48.4335 22.6704L48.5583 22.9165C48.8887 23.0517 50.8862 23.7373 51.2805 23.8601L51.8593 23.6531C52.1137 24.2687 52.7546 24.1911 53.2858 24.6773C53.8546 25.1981 54.9279 25.5971 55.6889 26.027Z" fill="#361A0A"/>
<path d="M78.6818 9.6571H18.6818V73.6571H78.6818V9.6571Z" fill="#E44E4E"/>
<path fill-rule="evenodd" clip-rule="evenodd" d="M32.9271 51.8199C34.5353 49.6013 32.8066 43.437 31.4381 41.1544C35.2648 39.4029 42.8213 39.7265 54.1076 42.1252C53.018 44.1487 52.5735 45.9551 52.7742 47.5446C51.743 48.8189 50.891 50.1434 50.2182 51.5181L42.2929 53.485C37.2847 54.0915 34.1628 53.5365 32.9271 51.8199Z" fill="black" fill-opacity="0.24"/>
</g>
<path fill-rule="evenodd" clip-rule="evenodd" d="M30.7365 44.8787C30.723 44.8326 30.6899 44.781 30.6443 44.7266C30.6752 44.7771 30.7062 44.8277 30.7365 44.8787ZM25.5931 33.5143C25.7878 34.9235 26.1217 36.2778 26.606 37.6291C27.0745 38.9368 27.6104 40.2482 28.3815 41.444C29.1 42.5584 29.9553 43.5982 30.6443 44.7265C30.4631 44.51 30.0826 44.2468 29.9365 44.0917C29.6964 43.8366 29.4716 43.5738 29.2584 43.3013C28.8214 42.7428 28.4319 42.1586 28.0553 41.5679C27.3162 40.4084 26.762 39.1507 26.2818 37.8927C25.3387 35.4223 24.3925 32.4267 25.2213 29.8173C25.1573 29.9851 25.3256 30.3859 25.3521 30.5708C25.3983 30.8938 25.4398 31.2191 25.4606 31.5445C25.5028 32.2033 25.5025 32.8585 25.5931 33.5143ZM28.4217 43.7237C28.1129 43.3279 27.5395 43.0158 27.1848 42.6352C26.8631 42.2902 26.6141 41.9036 26.388 41.5062C25.8754 40.6055 25.5386 39.6856 25.4295 38.6786C25.4544 38.7981 25.6382 39.0047 25.6961 39.1028C25.8356 39.3391 25.9736 39.5758 26.1025 39.8168C26.3519 40.2833 26.56 40.7656 26.8121 41.2309C27.2751 42.0858 27.8643 42.9132 28.4217 43.7237ZM29.4845 47.9425C29.7379 48.391 29.9483 48.8491 30.0811 49.3373C30.1512 49.5948 30.2077 49.8559 30.2562 50.1173C30.2719 50.2017 30.2749 50.5051 30.3147 50.6363C29.8114 49.6555 29.4272 48.6168 28.8277 47.6782C28.2359 46.7515 27.4761 45.8995 26.6809 45.0996C25.8412 44.255 24.9967 43.458 24.5463 42.3918C24.1543 41.4636 24.0029 40.5134 24.0941 39.5219C24.0946 39.9586 24.4933 40.5783 24.6311 41.0003C24.8196 41.578 24.9694 42.1672 25.2533 42.7164C25.7363 43.6509 26.6075 44.3718 27.3362 45.1592C28.1435 46.0314 28.9147 46.9335 29.4845 47.9425ZM26.2338 45.8124C26.4744 46.045 26.6855 46.2931 26.8716 46.561C27.0756 46.8546 27.2253 47.1634 27.3591 47.4866C27.4743 47.7648 27.5251 48.2826 27.7062 48.5147C27.1202 47.7957 26.5168 47.1165 26.1126 46.2999C25.9748 46.0205 25.7609 45.6089 25.603 45.2725C25.6556 45.4079 26.115 45.6976 26.2338 45.8124ZM23.8871 47.2635C24.5319 48.2349 25.3752 49.1106 25.9266 50.1271C26.5697 51.3126 26.8527 52.5972 26.9097 53.9076C26.9367 54.5273 26.9353 55.1567 26.8522 55.7747C26.8077 56.1055 26.7363 56.4343 26.6548 56.7601C26.6239 56.8838 26.4638 57.2005 26.4327 57.3935C26.3668 54.9841 26.7633 52.5745 25.5174 50.3298C24.9275 49.2668 24.0207 48.3605 23.3177 47.3542C22.6856 46.4494 22.0681 45.562 21.5647 44.5946C21.8729 44.9868 22.4284 45.295 22.7729 45.6845C23.2044 46.1722 23.5338 46.7313 23.8871 47.2635ZM26.4326 57.3935C26.4252 57.4401 26.425 57.4798 26.4357 57.5078C26.4345 57.4697 26.4337 57.4316 26.4326 57.3935ZM24.2637 52.2843C24.2639 52.3977 24.4492 52.6312 24.4998 52.7493C24.6184 53.0258 24.7149 53.316 24.763 53.609C24.858 54.1869 24.7334 54.7839 24.5204 55.3372C24.0888 56.4588 23.4128 57.4521 22.5629 58.3771C22.8664 57.9776 22.9872 57.3283 23.2008 56.8827C23.42 56.4254 23.6552 55.9751 23.8485 55.5087C24.2848 54.4562 24.2462 53.3805 24.2637 52.2843ZM22.2994 56.5602C22.3905 56.4349 22.3432 55.8327 22.3914 55.6751C22.4805 55.3841 22.6346 55.1033 22.8115 54.8443C22.7171 55.004 22.8566 55.408 22.8105 55.6153C22.735 55.9555 22.5446 56.2854 22.2994 56.5602ZM35.4108 15.771C35.3925 15.784 35.3743 15.8075 35.3564 15.8387C35.3746 15.8162 35.3924 15.7935 35.4108 15.771ZM32.0561 20.7044C32.3789 20.4196 32.5508 19.7465 32.7735 19.3833C33.0292 18.9661 33.323 18.5652 33.6017 18.1591C34.1544 17.3535 34.676 16.5628 35.3564 15.8298C35.2151 16.0433 35.0898 16.6911 35.0122 16.8614C34.8096 17.3067 34.5679 17.7333 34.2802 18.1425C33.6301 19.0669 32.9325 19.9261 32.0561 20.7044ZM31.9345 18.3707C32.105 18.0674 32.3649 17.8112 32.6572 17.5904C32.527 17.7053 32.4683 18.179 32.3789 18.339C32.1982 18.6617 31.9351 18.9401 31.6526 19.201C31.8035 19.068 31.8278 18.5603 31.9345 18.3707ZM59.024 40.7721C59.0225 40.7839 59.0194 40.8073 59.0147 40.843C59.0142 40.4944 58.8601 40.1114 58.8418 39.7529C58.8164 39.2522 58.8879 38.7665 59.088 38.2919C59.4833 37.3544 60.225 36.6444 61.1706 36.0888C60.9104 36.243 60.6554 36.8232 60.4885 37.0644C60.2379 37.427 59.97 37.7929 59.7582 38.1732C59.3166 38.9658 59.1886 39.9143 59.024 40.7721ZM58.6815 35.8244C58.6275 36.1043 58.5566 36.3821 58.4566 36.6532C58.3488 36.9455 58.2082 37.2298 58.0513 37.5053C57.9536 37.677 57.6015 38.0371 57.6017 38.227C57.583 37.1074 57.9945 36.0932 58.7772 35.1966C58.6914 35.3469 58.713 35.6608 58.6815 35.8244ZM58.4993 43.8788C59.3302 43.7606 60.1142 44.1671 60.6405 44.6905C60.9218 44.9702 61.1717 45.2915 61.3371 45.6352C61.4613 45.8936 61.4611 46.3171 61.628 46.5311C61.2195 45.9783 60.7016 45.5317 60.1906 45.0536C59.8353 44.7211 59.1252 43.8694 58.4993 43.8788ZM58.3225 46.2506C58.2789 46.2358 57.883 46.1232 57.7913 46.1776C57.9271 46.1165 58.0937 46.0422 58.2429 46.0224C59.2166 45.8923 60.4002 46.7404 60.531 47.5586C60.4222 47.2783 59.8434 47.0465 59.5817 46.9071C59.1674 46.6862 58.7717 46.4188 58.3225 46.2506ZM58.7336 48.0361C58.9022 48.0776 59.2607 48.3048 59.4262 48.3023C58.7604 48.3186 58.1598 48.2441 57.5191 48.0934C57.5537 48.1029 57.9189 47.9892 57.9307 47.9875C58.2068 47.9483 58.4664 47.9704 58.7336 48.0361ZM56.1551 51.2034C57.1298 51.1481 58.277 51.2912 59.2077 51.5272C59.6698 51.6444 60.103 51.8212 60.5014 52.0518C60.8228 52.2378 61.3945 52.4934 61.6095 52.7689C60.7597 51.2942 58.9164 50.5283 57.0279 50.9081C56.7762 50.959 56.3896 51.1999 56.1551 51.2034ZM55.9371 54.0452C56.5481 53.8247 57.2237 53.6124 57.8877 53.5815C58.5176 53.5525 59.2162 53.6476 59.799 53.8496C59.5985 53.7948 59.1189 53.9255 58.9081 53.9495C58.6134 53.9831 58.3181 54.0178 58.0227 54.0449C57.6605 54.0781 57.2951 54.0966 56.9316 54.0958C56.6726 54.0953 56.1771 53.9722 55.9371 54.0452ZM53.5588 57.9795C53.6163 58.8876 54.1388 59.6789 54.9069 60.2837C55.7212 60.9248 56.8111 61.2166 57.4022 62.073C57.6903 62.4904 57.8438 62.9761 57.8192 63.4669C57.8064 63.7197 57.7432 63.9739 57.6749 64.2199C57.6299 64.3817 57.4698 64.6469 57.47 64.8047C57.4771 63.9164 57.489 62.8821 56.8708 62.1367C56.2502 61.3883 55.168 61.1247 54.4098 60.5103C53.6647 59.9066 53.0995 59.1175 52.9722 58.2281C52.8694 57.5095 52.9201 56.2564 53.6608 55.7688C53.5105 55.8579 53.5403 56.3112 53.5367 56.4387C53.5223 56.9486 53.5266 57.4709 53.5588 57.9795ZM53.0013 61.4681C53.0914 61.5868 53.5853 61.7312 53.7304 61.8131C54.0615 62 54.3816 62.2124 54.6442 62.4707C55.1707 62.9888 55.51 63.7154 55.5345 64.4122C55.5345 64.2475 55.1603 63.8506 55.0553 63.7099C54.8807 63.4762 54.6836 63.2598 54.4828 63.0432C53.9935 62.5151 53.4853 61.9999 53.0013 61.4681ZM64.8563 41.1522C65.13 41.3923 65.3134 41.6908 65.4642 41.9999C65.8121 42.713 65.8769 43.5354 65.5981 44.2858C65.6442 44.1247 65.5069 43.7864 65.4683 43.6232C65.3837 43.2659 65.2514 42.9285 65.1133 42.585C64.845 41.9187 64.6281 41.2942 64.1622 40.7104C64.2828 40.8629 64.6915 41.0075 64.8563 41.1522ZM51.7522 15.5961C51.7523 15.6719 51.9606 15.8916 52.0076 15.9742C52.1249 16.1804 52.2176 16.3967 52.2493 16.6268C52.2853 16.8877 52.2413 17.143 52.1626 17.3967C52.1159 17.5475 51.8935 17.8388 51.8937 17.9747C51.8574 17.1751 51.6815 16.4068 51.7522 15.5961ZM53.4879 17.1554C53.5255 17.4395 53.4332 17.7598 53.2689 18.0107C53.2988 17.9397 53.1657 17.4661 53.1614 17.3794C53.1479 17.1112 53.1771 16.8356 53.1946 16.5676C53.1948 16.714 53.4635 16.9704 53.4879 17.1554ZM39.6767 17.5138C39.396 17.8596 39.0768 18.1836 38.7335 18.4837C38.5008 18.6871 38.0552 18.9156 37.878 19.1489C38.6737 17.8433 39.593 16.7172 40.6738 15.576C40.5112 15.7864 40.4687 16.2427 40.3494 16.4888C40.1735 16.8516 39.9381 17.1919 39.6767 17.5138ZM41.0171 18.0803C41.1467 18.0035 41.2679 17.6249 41.3667 17.4974C41.5329 17.2828 41.7358 17.0755 41.9524 16.8966C41.9059 16.9469 41.8156 17.3636 41.7649 17.4454C41.6008 17.7107 41.3105 17.927 41.0171 18.0803Z" fill="white" fill-opacity="0.6"/>
</g>
</g>
<mask id="mask8" mask-type="alpha" maskUnits="userSpaceOnUse" x="2" y="2" width="82" height="82">
<circle cx="43" cy="43" r="41" fill="#C4C4C4"/>
</mask>
<g mask="url(#mask8)">
</g>
<circle cx="43" cy="43" r="41" stroke="#DEDEDE" stroke-width="3"/>
</svg>
