<svg width="86" height="86" viewBox="0 0 86 86" fill="none" xmlns="http://www.w3.org/2000/svg">
<path d="M43.0001 83.9995C65.6436 83.9995 83.9998 65.6433 83.9998 42.9998C83.9998 20.3562 65.6436 2 43.0001 2C20.3565 2 2.00031 20.3562 2.00031 42.9998C2.00031 65.6433 20.3565 83.9995 43.0001 83.9995Z" fill="#DEDEDE"/>
<mask id="mask0" mask-type="alpha" maskUnits="userSpaceOnUse" x="2" y="2" width="82" height="82">
<circle cx="43" cy="43" r="41" fill="#C4C4C4"/>
</mask>
<g mask="url(#mask0)">
</g>
<mask id="mask1" mask-type="alpha" maskUnits="userSpaceOnUse" x="2" y="1" width="82" height="82">
<circle cx="43" cy="42" r="41" fill="#C4C4C4"/>
</mask>
<g mask="url(#mask1)">
</g>
<mask id="mask2" mask-type="alpha" maskUnits="userSpaceOnUse" x="2" y="2" width="82" height="82">
<circle cx="43" cy="43" r="41" fill="#C4C4C4"/>
</mask>
<g mask="url(#mask2)">
</g>
<mask id="mask3" mask-type="alpha" maskUnits="userSpaceOnUse" x="2" y="2" width="82" height="82">
<circle cx="43" cy="43" r="41" fill="#C4C4C4"/>
</mask>
<g mask="url(#mask3)">
<path d="M36.9306 48.431C41.0379 48.431 45.1443 48.431 49.2516 48.431L49.3186 49.0815L43.2973 56.1327L36.8294 49.0112L36.9299 48.431H36.9306Z" fill="#B3B3B3"/>
<path d="M37.0102 46.6615L36.9033 50.6391L28.1681 54.3294V67.8557H42.8737H57.5769V54.3294L49.4581 50.4314L49.0123 46.4545L37.0104 46.6622V46.6615H37.0102Z" fill="#F0BA7D"/>
<path d="M32.6197 51.8096C33.5599 57.8097 53.518 57.6397 53.5641 51.8102L60.1278 60.4287L54.9296 82.2143C51.1614 83.0215 47.193 83.4546 43.0921 83.4546C39.7473 83.4546 36.4911 83.1657 33.359 82.6222L24.0425 61.1169L32.6197 51.8096Z" fill="#FEFEFE"/>
<path d="M34.5251 51.3451C11.3228 57.174 19.2277 49.5064 13.9825 69.2958C17.1367 71.6 17.6042 71.116 21.5295 72.6273L25.7293 74.0141C25.7564 73.947 25.8394 73.9051 25.9296 73.913C26.0197 73.9209 26.0883 73.977 26.0938 74.0473L26.4303 80.942C31.5728 82.5604 37.1968 83.4537 43.0929 83.4537V69.1828L34.5259 51.3444L34.5251 51.3451Z" fill="#21D0C3"/>
<path d="M23.4005 79.8842C19.4752 78.3729 15.8814 76.4248 12.7273 74.1206L13.4435 71.3779L13.9825 69.2958L25.7293 74.014L23.4005 79.8842Z" fill="#F0BA7D"/>
<path d="M51.6543 51.3857C74.8755 57.1584 68.2117 54.3331 73.4569 74.1208C70.3027 76.4249 66.7083 78.3731 62.783 79.885L60.4542 74.0149C60.4278 73.9478 60.344 73.9052 60.2532 73.9138C60.1631 73.9224 60.0945 73.9784 60.0897 74.0481L59.7547 80.9428C54.6123 82.5612 48.9874 83.4545 43.093 83.4545V69.1834L51.6543 51.3857Z" fill="#15BDB2"/>
<path d="M62.783 79.8851C66.7083 78.3731 70.3027 76.425 73.4569 74.1208L72.2017 68.8794L60.4542 74.0149L62.783 79.8851Z" fill="#F0BA7D"/>
<mask id="mask4" mask-type="alpha" maskUnits="userSpaceOnUse" x="24" y="6" width="38" height="50">
<path d="M49.7273 51.7803V46.6258C54.559 44.3306 58.032 39.6396 58.6114 34.088C60.2442 33.8571 61.5 32.454 61.5 30.7576V26.8334C61.5 25.1667 60.2878 23.7831 58.697 23.5162V21.7879C58.697 13.1187 51.6692 6.09094 43 6.09094C34.3308 6.09094 27.303 13.1187 27.303 21.7879V23.5162C25.7122 23.7831 24.5 25.1667 24.5 26.8334V30.7576C24.5 32.454 25.7558 33.8571 27.3886 34.088C27.968 39.6396 31.441 44.3306 36.2727 46.6258V51.7803L43 55.4243L49.7273 51.7803Z" fill="#C4C4C4"/>
</mask>
<g mask="url(#mask4)">
<path d="M49.7273 46.6258V51.7803H50.8485C61.9946 51.7803 71.0303 60.816 71.0303 71.9622V74.4849H14.9697V71.9622C14.9697 60.816 24.0054 51.7803 35.1515 51.7803H36.2727V46.6258C31.441 44.3305 27.968 39.6396 27.3886 34.088C25.7558 33.8571 24.5 32.454 24.5 30.7576V26.8334C24.5 25.1667 25.7122 23.7831 27.303 23.5162V21.7879C27.303 13.1187 34.3308 6.09094 43 6.09094C51.6692 6.09094 58.697 13.1187 58.697 21.7879V23.5162C60.2878 23.7831 61.5 25.1667 61.5 26.8334V30.7576C61.5 32.454 60.2442 33.8571 58.6114 34.088C58.032 39.6396 54.559 44.3305 49.7273 46.6258Z" fill="#D0C6AC"/>
<path d="M88.9697 6.09094H14.9697V84.5758H88.9697V6.09094Z" fill="#F0BA7D"/>
</g>
<path d="M45.5227 38.6061H40.4772C40.0128 38.6061 39.6363 38.9826 39.6363 39.447C39.6363 39.9114 40.0128 40.2879 40.4772 40.2879H45.5227C45.9871 40.2879 46.3636 39.9114 46.3636 39.447C46.3636 38.9826 45.9871 38.6061 45.5227 38.6061Z" fill="black" fill-opacity="0.7"/>
<path fill-rule="evenodd" clip-rule="evenodd" d="M39.6363 32.4395C39.6363 33.6779 41.1423 34.6819 43 34.6819C44.8576 34.6819 46.3636 33.6779 46.3636 32.4395" fill="black" fill-opacity="0.16"/>
<path fill-rule="evenodd" clip-rule="evenodd" d="M34.9387 26.9302C34.7206 27.2139 34.5909 27.5691 34.5909 27.9546C34.5909 28.8834 35.3438 29.6364 36.2727 29.6364C37.2015 29.6364 37.9545 28.8834 37.9545 27.9546C37.9545 27.8732 37.9487 27.7932 37.9376 27.715C37.9398 27.6526 37.9292 27.582 37.9028 27.5081C37.8901 27.4729 37.8766 27.4381 37.8622 27.4037C37.7687 27.1338 37.6083 26.8951 37.401 26.7074C36.805 26.0814 35.8541 25.7122 34.8705 25.7122C33.5157 25.7122 32.3503 26.4545 31.8327 27.5194C31.6814 27.8308 31.9411 28.0388 32.1908 27.8345C32.8737 27.2759 33.8221 26.9297 34.8705 26.9297C34.8933 26.9297 34.916 26.9299 34.9387 26.9302Z" fill="black" fill-opacity="0.6"/>
<path fill-rule="evenodd" clip-rule="evenodd" d="M51.1963 26.9302C50.9781 27.2139 50.8484 27.5691 50.8484 27.9546C50.8484 28.8834 51.6014 29.6364 52.5303 29.6364C53.4591 29.6364 54.2121 28.8834 54.2121 27.9546C54.2121 27.8732 54.2063 27.7932 54.1951 27.715C54.1973 27.6526 54.1868 27.582 54.1603 27.5081C54.1477 27.4729 54.1342 27.4381 54.1198 27.4037C54.0262 27.1338 53.8659 26.8951 53.6586 26.7074C53.0625 26.0814 52.1116 25.7122 51.1281 25.7122C49.7733 25.7122 48.6079 26.4545 48.0903 27.5194C47.9389 27.8308 48.1987 28.0388 48.4484 27.8345C49.1312 27.2759 50.0796 26.9297 51.1281 26.9297C51.1508 26.9297 51.1736 26.9299 51.1963 26.9302Z" fill="black" fill-opacity="0.6"/>
<path fill-rule="evenodd" clip-rule="evenodd" d="M36.0579 24.7091L35.8025 24.822C34.3332 25.4053 32.1061 25.1608 30.7443 24.5071C30.5854 24.4308 30.6941 24.184 30.8569 24.1965C35.0387 24.5192 37.8541 21.9133 38.8105 20.149C38.8389 20.0966 38.9246 20.0907 38.9458 20.1395C39.5925 21.6304 37.6985 24.0594 36.0579 24.7091Z" fill="black" fill-opacity="0.6"/>
<path fill-rule="evenodd" clip-rule="evenodd" d="M49.942 24.7091L50.1974 24.822C51.6667 25.4053 53.8938 25.1608 55.2556 24.5071C55.4145 24.4308 55.3059 24.184 55.143 24.1965C50.9612 24.5192 48.1458 21.9133 47.1894 20.149C47.161 20.0966 47.0753 20.0907 47.0541 20.1395C46.4074 21.6304 48.3014 24.0594 49.942 24.7091Z" fill="black" fill-opacity="0.6"/>
<path d="M49.7273 48.697V47.0151H36.2727V48.697C37.5808 49.2576 40.7576 50.3788 43 50.3788C45.2424 50.3788 48.4192 49.2576 49.7273 48.697Z" fill="#E0A766"/>
<path d="M43.0384 49.0707C43.0384 49.0707 40.4226 48.9485 39.2448 48.6415C37.7459 48.8454 30.4463 42.5343 30.7434 42.0613L31.2273 33L41.1993 32.4057C41.1993 32.4057 42.4165 31.7664 43.0384 31.9015C43.6616 31.7664 44.8774 32.4057 44.8774 32.4057L55.1041 32.8169L55.3333 42.0613C55.3333 42.0613 48.0099 48.3345 46.8317 48.6415C45.6542 48.9485 43.0384 49.0707 43.0384 49.0707Z" fill="#FEFEFE"/>
<path d="M43.0384 31.9017L43.8666 34.4512L43.4262 36.2314L44.3328 40.523L43.3794 44.6267L43.0373 49.071C43.0373 49.071 45.6531 48.9488 46.8309 48.6418C47.9354 48.8632 55.16 43.3033 55.3325 42.0615L55.1033 32.8171L44.8766 32.4059C44.8766 32.4059 43.6602 31.7666 43.0384 31.9017Z" fill="#EEF3F7"/>
<path d="M29.3026 22.1546L31.7879 33.0001H31.2273L28.8105 22.3504L29.3026 22.1546Z" fill="#21D0C3"/>
<path d="M57.1047 22.5062L55.0705 32.8507H54.5625L56.596 22.3568L57.1047 22.5062Z" fill="#21D0C3"/>
<path d="M43 3.85059C43 3.85059 30.0608 5.87734 29.0115 8.71105C27.9622 11.5448 27.088 10.9013 27.3499 14.2499C26.7424 17.8634 27.3499 23.4695 27.3499 23.4695C38.4475 19.2448 47.7019 19.0914 58.697 23.4695C58.697 23.4695 58.697 17.8634 58.6489 14.2499C58.9111 10.9013 58.0367 11.545 56.9874 8.71105C55.9381 5.87734 43 3.85059 43 3.85059Z" fill="#21D0C3"/>
<path d="M43 3.85085L42.937 3.86069C42.937 3.86069 55.7118 7.25267 55.8432 8.28209C55.9749 9.31174 55.3564 10.2852 56.8491 10.8151C58.3417 11.3453 57.9417 13.7776 57.9417 13.7776L57.7096 23.0316L57.782 23.1202L58.6501 23.4697C58.6501 23.4697 58.697 17.8637 58.6501 14.2479C58.912 10.8992 58.0379 11.5429 56.9885 8.70898C55.9392 5.87527 43 3.84851 43 3.84851V3.85085Z" fill="#15BDB2"/>
</g>
<circle cx="43" cy="43" r="41" stroke="#DEDEDE" stroke-width="3"/>
</svg>
