<svg width="86" height="86" viewBox="0 0 86 86" fill="none" xmlns="http://www.w3.org/2000/svg">
<path d="M43.0001 83.9995C65.6436 83.9995 83.9998 65.6433 83.9998 42.9998C83.9998 20.3562 65.6436 2 43.0001 2C20.3565 2 2.00031 20.3562 2.00031 42.9998C2.00031 65.6433 20.3565 83.9995 43.0001 83.9995Z" fill="#DEDEDE"/>
<mask id="mask0" mask-type="alpha" maskUnits="userSpaceOnUse" x="2" y="2" width="82" height="82">
<circle cx="43" cy="43" r="41" fill="#C4C4C4"/>
</mask>
<g mask="url(#mask0)">
</g>
<mask id="mask1" mask-type="alpha" maskUnits="userSpaceOnUse" x="2" y="1" width="82" height="82">
<circle cx="43" cy="42" r="41" fill="#C4C4C4"/>
</mask>
<g mask="url(#mask1)">
</g>
<mask id="mask2" mask-type="alpha" maskUnits="userSpaceOnUse" x="2" y="2" width="82" height="82">
<circle cx="43" cy="43" r="41" fill="#C4C4C4"/>
</mask>
<g mask="url(#mask2)">
<mask id="mask3" mask-type="alpha" maskUnits="userSpaceOnUse" x="19" y="13" width="48" height="58">
<path d="M48.511 46.9968V51.2529H49.4412C58.6886 51.2529 66.1851 58.7137 66.1851 67.917V70.0001H19.6743V67.917C19.6743 58.7137 27.1708 51.2529 36.4182 51.2529H37.3484V46.9968C33.3398 45.1016 30.4583 41.2282 29.9776 36.6442C28.623 36.4536 27.5811 35.2951 27.5811 33.8944V30.6541C27.5811 29.2779 28.5868 28.1355 29.9067 27.9151V26.4881C29.9067 19.3299 35.7373 13.527 42.9297 13.527C50.1221 13.527 55.9527 19.3299 55.9527 26.4881V27.9151C57.2726 28.1355 58.2783 29.2779 58.2783 30.6541V33.8944C58.2783 35.2951 57.2364 36.4536 55.8818 36.6442C55.4011 41.2282 52.5196 45.1016 48.511 46.9968Z" fill="white"/>
</mask>
<g mask="url(#mask3)">
<path d="M48.2785 46.8018V51.0579H49.2087C58.4561 51.0579 65.9526 58.5187 65.9526 67.7221V69.8051H19.4417V67.7221C19.4417 58.5187 26.9382 51.0579 36.1856 51.0579H37.1159V46.8018C33.1072 44.9066 30.2258 41.0333 29.7451 36.4493C28.3905 36.2587 27.3486 35.1002 27.3486 33.6994V30.4592C27.3486 29.083 28.3543 27.9406 29.6741 27.7202V26.2931C29.6741 19.1349 35.5047 13.3321 42.6972 13.3321C49.8896 13.3321 55.7202 19.1349 55.7202 26.2931V27.7202C57.04 27.9406 58.0457 29.083 58.0457 30.4592V33.6994C58.0457 35.1002 57.0038 36.2587 55.6492 36.4493C55.1685 41.0333 52.2871 44.9066 48.2785 46.8018Z" fill="#D0C6AC"/>
<path d="M80.836 13.3321H19.4417V78.1372H80.836V13.3321Z" fill="#614335"/>
<path fill-rule="evenodd" clip-rule="evenodd" d="M55.7202 31.6164V36.9397C55.7202 44.0978 49.8896 49.9007 42.6972 49.9007C35.5047 49.9007 29.6741 44.0978 29.6741 36.9397V31.6164V35.0881C29.6741 42.2463 35.5047 48.0491 42.6972 48.0491C49.8896 48.0491 55.7202 42.2463 55.7202 35.0881V31.6164Z" fill="black" fill-opacity="0.1"/>
</g>
<path d="M46.0559 39.1079H39.1059C37.7927 39.1079 36.7282 40.1673 36.7282 41.4742C36.7282 42.7811 37.7927 43.8405 39.1059 43.8405H46.0559C47.369 43.8405 48.4335 42.7811 48.4335 41.4742C48.4335 40.1673 47.369 39.1079 46.0559 39.1079Z" fill="black" fill-opacity="0.6"/>
<mask id="mask4" mask-type="alpha" maskUnits="userSpaceOnUse" x="37" y="39" width="12" height="5">
<path d="M46.0558 39.472H39.1059C37.9948 39.472 37.094 40.3684 37.094 41.4742C37.094 42.5801 37.9948 43.4765 39.1059 43.4765H46.0558C47.167 43.4765 48.0677 42.5801 48.0677 41.4742C48.0677 40.3684 47.167 39.472 46.0558 39.472Z" fill="white"/>
</mask>
<g mask="url(#mask4)">
<path d="M46.0558 39.472H39.1059C37.9948 39.472 37.094 40.3684 37.094 41.4742C37.094 42.5801 37.9948 43.4765 39.1059 43.4765H46.0558C47.167 43.4765 48.0677 42.5801 48.0677 41.4742C48.0677 40.3684 47.167 39.472 46.0558 39.472Z" fill="white"/>
<path fill-rule="evenodd" clip-rule="evenodd" d="M45.6901 41.8383H44.044V44.0226H43.3124V41.8383H41.6664V44.0226H40.9348V41.8383H39.2888V44.0226H38.5572V41.8383H37.094V41.1102H38.5572V38.926H39.2888V41.1102H40.9348V38.926H41.6664V41.1102H43.3124V38.926H44.044V41.1102H45.6901V38.926H46.4216V41.1102H48.0433V41.8383H46.4216V44.0226H45.6901V41.8383Z" fill="#E6E6E6"/>
</g>
<path fill-rule="evenodd" clip-rule="evenodd" d="M39.9065 35.0881C39.9065 36.1107 41.1559 36.9396 42.6972 36.9396C44.2384 36.9396 45.4878 36.1107 45.4878 35.0881" fill="black" fill-opacity="0.16"/>
<path d="M36.6507 34.1623C38.4488 34.1623 39.9065 32.7116 39.9065 30.9221C39.9065 29.1325 38.4488 27.6818 36.6507 27.6818C34.8526 27.6818 33.395 29.1325 33.395 30.9221C33.395 32.7116 34.8526 34.1623 36.6507 34.1623Z" fill="white"/>
<path d="M48.7436 34.1623C50.5417 34.1623 51.9993 32.7116 51.9993 30.9221C51.9993 29.1325 50.5417 27.6818 48.7436 27.6818C46.9455 27.6818 45.4878 29.1325 45.4878 30.9221C45.4878 32.7116 46.9455 34.1623 48.7436 34.1623Z" fill="white"/>
<path d="M36.6508 32.3108C37.4214 32.3108 38.0461 31.6891 38.0461 30.9221C38.0461 30.1552 37.4214 29.5334 36.6508 29.5334C35.8801 29.5334 35.2554 30.1552 35.2554 30.9221C35.2554 31.6891 35.8801 32.3108 36.6508 32.3108Z" fill="black" fill-opacity="0.7"/>
<path d="M48.7436 32.3108C49.5142 32.3108 50.1389 31.6891 50.1389 30.9221C50.1389 30.1552 49.5142 29.5334 48.7436 29.5334C47.9729 29.5334 47.3482 30.1552 47.3482 30.9221C47.3482 31.6891 47.9729 32.3108 48.7436 32.3108Z" fill="black" fill-opacity="0.7"/>
<path fill-rule="evenodd" clip-rule="evenodd" d="M35.3915 25.5191C34.1435 26.0388 32.4253 27.7025 32.9412 28.9571C32.9581 28.9981 33.0262 28.9941 33.0447 28.9511C33.4128 28.0885 37.4515 25.884 39.0826 25.6813C39.2319 25.6628 39.2874 25.4895 39.1646 25.4235C38.1124 24.8583 36.5092 25.0524 35.3915 25.5191Z" fill="black" fill-opacity="0.6"/>
<path fill-rule="evenodd" clip-rule="evenodd" d="M50.2354 25.5191C51.4834 26.0388 53.2017 27.7025 52.6858 28.9571C52.6689 28.9981 52.6007 28.9941 52.5823 28.9511C52.2141 28.0885 48.1754 25.884 46.5443 25.6813C46.395 25.6628 46.3395 25.4895 46.4623 25.4235C47.5145 24.8583 49.1178 25.0524 50.2354 25.5191Z" fill="black" fill-opacity="0.6"/>
<mask id="mask5" mask-type="alpha" maskUnits="userSpaceOnUse" x="12" y="5" width="62" height="65">
<path d="M73.3943 5H12V69.8051H73.3943V5Z" fill="white"/>
</mask>
<g mask="url(#mask5)">
<mask id="mask6" mask-type="alpha" maskUnits="userSpaceOnUse" x="29" y="27" width="27" height="22">
<path fill-rule="evenodd" clip-rule="evenodd" d="M46.7502 44.385C46.1656 44.916 45.5429 45.1547 44.7559 44.9878C44.6205 44.9591 44.0683 43.9374 42.6971 43.9374C41.3258 43.9374 40.7738 44.9591 40.6382 44.9878C39.8512 45.1547 39.2285 44.916 38.644 44.385C37.5452 43.3868 36.6313 42.0103 37.1804 40.5084C37.4666 39.7256 37.932 38.8662 38.7787 38.6167C39.6828 38.3505 40.9522 38.6163 41.8634 38.4344C42.1585 38.3755 42.481 38.2707 42.6971 38.0969C42.9132 38.2707 43.2357 38.3755 43.5307 38.4344C44.4419 38.6163 45.7113 38.3505 46.6154 38.6167C47.4621 38.8662 47.9276 39.7256 48.2138 40.5084C48.7629 42.0103 47.8491 43.3868 46.7502 44.385ZM55.739 27.6818C54.9459 29.626 55.2522 32.0465 55.1054 34.0873C54.9862 35.7462 54.6358 38.2325 53.1557 39.3038C52.3989 39.8517 51.0212 40.7724 50.0323 40.5156C49.3515 40.3388 49.2789 38.3955 48.3843 37.6681C47.3695 36.843 46.1024 36.4805 44.8248 36.5365C44.2735 36.5607 43.1585 36.5549 42.6971 36.9768C42.2357 36.5549 41.1208 36.5607 40.5695 36.5365C39.2918 36.4805 38.0247 36.843 37.0099 37.6681C36.1153 38.3955 36.0427 40.3388 35.362 40.5156C34.373 40.7724 32.9954 39.8517 32.2385 39.3038C30.7583 38.2325 30.4081 35.7462 30.2887 34.0873C30.142 32.0465 30.4483 29.626 29.6552 27.6818C29.2694 27.6818 29.5239 31.4148 29.5239 31.4148V36.1262C29.5312 39.6646 31.752 44.9606 36.6758 46.9829C37.88 47.4774 40.6077 48.2806 42.6971 48.2806C44.7865 48.2806 47.5142 47.5539 48.7184 47.0593C53.6422 45.0371 55.863 39.6646 55.8704 36.1262V31.4148C55.8704 31.4148 56.1248 27.6818 55.739 27.6818Z" fill="white"/>
</mask>
<g mask="url(#mask6)">
<path fill-rule="evenodd" clip-rule="evenodd" d="M46.7502 44.385C46.1656 44.916 45.5429 45.1547 44.7559 44.9878C44.6205 44.9591 44.0683 43.9374 42.6971 43.9374C41.3258 43.9374 40.7738 44.9591 40.6382 44.9878C39.8512 45.1547 39.2285 44.916 38.644 44.385C37.5451 43.3868 36.6313 42.0103 37.1804 40.5084C37.4666 39.7256 37.932 38.8662 38.7787 38.6167C39.6828 38.3505 40.9522 38.6163 41.8633 38.4344C42.1585 38.3755 42.481 38.2707 42.6971 38.0969C42.9132 38.2707 43.2357 38.3755 43.5307 38.4344C44.4419 38.6163 45.7113 38.3505 46.6154 38.6167C47.4621 38.8662 47.9276 39.7256 48.2138 40.5084C48.7629 42.0103 47.8491 43.3868 46.7502 44.385ZM55.739 27.6818C54.9459 29.626 55.2522 32.0465 55.1054 34.0873C54.9862 35.7462 54.6358 38.2325 53.1557 39.3038C52.3989 39.8517 51.0212 40.7724 50.0323 40.5156C49.3515 40.3388 49.2789 38.3955 48.3843 37.6681C47.3695 36.843 46.1024 36.4805 44.8248 36.5365C44.2735 36.5607 43.1585 36.5549 42.6971 36.9768C42.2357 36.5549 41.1208 36.5607 40.5695 36.5365C39.2918 36.4805 38.0247 36.843 37.0099 37.6681C36.1153 38.3955 36.0427 40.3388 35.362 40.5156C34.373 40.7724 32.9954 39.8517 32.2385 39.3038C30.7583 38.2325 30.4081 35.7462 30.2887 34.0873C30.142 32.0465 30.4483 29.626 29.6552 27.6818C29.2694 27.6818 29.5239 31.4148 29.5239 31.4148V36.1262C29.5312 39.6646 31.752 44.9606 36.6758 46.9829C37.88 47.4774 40.6077 48.2806 42.6971 48.2806C44.7865 48.2806 47.5142 47.5539 48.7184 47.0593C53.6422 45.0371 55.863 39.6646 55.8704 36.1262V31.4148C55.8704 31.4148 56.1248 27.6818 55.739 27.6818Z" fill="#331B0C"/>
</g>
<mask id="mask7" mask-type="alpha" maskUnits="userSpaceOnUse" x="28" y="10" width="29" height="19">
<path fill-rule="evenodd" clip-rule="evenodd" d="M33.6861 19.0891C33.7147 19.0789 33.6437 19.0749 33.4732 19.0773C33.6805 19.077 33.7515 19.0809 33.6861 19.0891ZM31.7943 16.122C31.7938 16.1183 31.7982 16.1505 31.7943 16.122V16.122ZM56.8283 22.6269C56.7669 22.0008 56.6581 21.3786 56.4752 20.7669C56.33 20.2807 56.1316 19.8168 55.8969 19.353C55.7552 19.0728 55.4243 18.6879 55.3854 18.3856C55.347 18.0878 55.6333 17.7579 55.6944 17.4112C55.7537 17.0738 55.7437 16.7191 55.6584 16.3848C55.4646 15.6255 54.8226 14.9194 53.8312 14.7215C53.6098 14.6772 53.142 14.7317 52.9855 14.6271C52.8062 14.5071 52.6813 14.0985 52.519 13.9345C52.0561 13.4672 51.3342 13.1663 50.5728 13.2712C50.0121 13.3484 50.3341 13.4425 49.9138 13.1747C49.6801 13.0258 49.5054 12.7985 49.2784 12.6373C48.9372 12.3952 48.5458 12.1879 48.1408 12.0178C47.0811 11.5727 45.8725 11.2492 44.6888 11.0915C42.5295 10.8038 40.2248 11.0546 38.1318 11.5104C37.0903 11.7372 36.0418 12.025 35.0745 12.4056C34.6597 12.5688 34.4203 12.7042 33.9879 12.7469C33.3068 12.8142 32.73 12.8109 32.0848 13.0453C30.0996 13.7667 29.2055 15.4403 29.978 17.0418C30.1334 17.3639 30.3438 17.6468 30.6338 17.9069C30.9875 18.2242 31.1154 18.1617 30.8108 18.5265C30.3553 19.072 29.9713 19.6536 29.6586 20.2576C28.8379 21.8434 28.7006 23.6294 28.754 25.3206C28.7727 25.9127 28.804 26.512 28.9191 27.0984C28.9687 27.3522 28.9827 27.8294 29.2172 28.0177C29.3362 28.1132 29.5058 28.1665 29.675 28.1285C30.0725 28.0391 29.9358 27.801 29.945 27.5799C29.9915 26.4694 29.9288 25.487 30.2542 24.3899C30.4945 23.5793 30.8951 22.8432 31.4143 22.1184C32.0744 21.1965 32.787 20.3869 33.6949 19.5975C33.9083 19.4119 33.9549 19.3332 34.2411 19.3197C34.4579 19.3096 34.7749 19.43 34.9856 19.4717C35.4502 19.5636 35.9157 19.6545 36.3887 19.7164C37.2585 19.8302 38.1197 19.8378 38.9972 19.8155C40.7243 19.7717 42.4587 19.6733 44.1332 19.3203C45.2452 19.086 46.2312 18.6652 47.2963 18.3568C47.3154 18.3513 47.5823 18.1969 47.6291 18.2032C47.6944 18.212 48.0889 18.5479 48.1554 18.5902C48.673 18.9196 49.2407 19.0579 49.7997 19.313C50.4889 19.6275 49.8214 19.1775 50.2015 19.5694C50.3123 19.6836 50.3691 19.8953 50.4579 20.0246C50.7407 20.4366 51.1341 20.7987 51.6047 21.086C52.0593 21.3636 52.7426 21.4977 52.9744 21.859C53.1532 22.1377 53.2135 22.5166 53.3577 22.8142C53.7362 23.5947 54.236 24.3225 54.7358 25.0577C55.1385 25.6501 55.5789 26.1676 55.6236 26.8446C55.6392 27.0803 55.3629 28.4938 56.0359 28.0639C56.1356 28.0002 56.3507 27.2795 56.3949 27.1572C56.5743 26.6603 56.638 26.1415 56.7193 25.631C56.8807 24.6156 56.9338 23.6495 56.8283 22.6269Z" fill="white"/>
</mask>
<g mask="url(#mask7)">
<path fill-rule="evenodd" clip-rule="evenodd" d="M33.2933 20.3803C33.3227 20.3716 33.2496 20.3683 33.0738 20.3703C33.2874 20.37 33.3606 20.3733 33.2933 20.3803ZM31.3441 17.8761C31.3436 17.8729 31.3481 17.9001 31.3441 17.8761V17.8761ZM57.1367 23.366C57.0734 22.8376 56.9613 22.3125 56.7729 21.7962C56.6233 21.3859 56.4189 20.9944 56.1771 20.6029C56.0311 20.3664 55.6901 20.0416 55.6501 19.7865C55.6106 19.5352 55.9055 19.2568 55.9685 18.9642C56.0296 18.6794 56.0192 18.38 55.9313 18.0978C55.7317 17.457 55.0702 16.8611 54.0488 16.6941C53.8207 16.6567 53.3386 16.7027 53.1775 16.6144C52.9927 16.5132 52.8641 16.1683 52.6968 16.0299C52.2199 15.6355 51.4761 15.3815 50.6916 15.4701C50.114 15.5352 50.4457 15.6147 50.0126 15.3886C49.7719 15.263 49.5919 15.0711 49.3581 14.9351C49.0065 14.7307 48.6032 14.5558 48.186 14.4122C47.0941 14.0366 45.8489 13.7636 44.6293 13.6305C42.4046 13.3877 40.0301 13.5994 37.8736 13.984C36.8006 14.1754 35.7203 14.4183 34.7237 14.7396C34.2964 14.8773 34.0497 14.9915 33.6042 15.0276C32.9024 15.0844 32.3081 15.0816 31.6434 15.2794C29.5981 15.8883 28.6769 17.3007 29.4727 18.6524C29.6328 18.9242 29.8496 19.1629 30.1484 19.3825C30.5128 19.6502 30.6446 19.5975 30.3308 19.9054C29.8615 20.3658 29.4658 20.8567 29.1437 21.3664C28.2981 22.7048 28.1567 24.2121 28.2117 25.6394C28.231 26.1391 28.2632 26.6449 28.3817 27.1398C28.4329 27.354 28.4473 27.7568 28.6889 27.9157C28.8116 27.9963 28.9862 28.0413 29.1605 28.0092C29.5701 27.9337 29.4293 27.7328 29.4388 27.5462C29.4867 26.609 29.422 25.7799 29.7573 24.854C30.005 24.1699 30.4177 23.5485 30.9526 22.9368C31.6327 22.1588 32.3669 21.4755 33.3023 20.8093C33.5222 20.6526 33.5702 20.5862 33.8651 20.5749C34.0884 20.5663 34.415 20.668 34.6321 20.7032C35.1108 20.7807 35.5904 20.8574 36.0778 20.9096C36.9738 21.0057 37.8612 21.0121 38.7653 20.9933C40.5447 20.9563 42.3317 20.8733 44.0569 20.5754C45.2026 20.3776 46.2184 20.0225 47.3159 19.7622C47.3355 19.7576 47.6105 19.6273 47.6588 19.6326C47.7261 19.64 48.1324 19.9234 48.201 19.9591C48.7343 20.2372 49.3192 20.3539 49.8951 20.5692C50.6052 20.8346 49.9175 20.4548 50.3091 20.7856C50.4233 20.882 50.4817 21.0606 50.5733 21.1698C50.8646 21.5175 51.27 21.8231 51.7548 22.0656C52.2232 22.2998 52.9272 22.413 53.1661 22.7179C53.3503 22.9532 53.4123 23.2729 53.561 23.5241C53.9509 24.1828 54.4659 24.7971 54.9808 25.4175C55.3956 25.9175 55.8494 26.3543 55.8955 26.9257C55.9116 27.1245 55.6269 28.3175 56.3203 27.9547C56.4231 27.9009 56.6447 27.2927 56.6902 27.1895C56.875 26.7701 56.9407 26.3323 57.0243 25.9014C57.1907 25.0444 57.2454 24.2291 57.1367 23.366Z" fill="#28354B"/>
<path d="M73.1618 5H11.7675V69.8051H73.1618V5Z" fill="#331B0C"/>
</g>
</g>
<path d="M31.5627 10.1162H53.8315C55.208 10.1162 56.4397 10.8948 56.334 11.8396L55.914 19.4959C53.09 17.3961 32.7218 17.6449 29.9067 19.9222L29.0604 11.8396C28.9536 10.8941 30.1863 10.1162 31.5627 10.1162Z" fill="white"/>
<path d="M43.1235 17.7905C45.2427 17.7905 46.9606 16.2635 46.9606 14.3797C46.9606 12.496 45.2427 10.9689 43.1235 10.9689C41.0043 10.9689 39.2863 12.496 39.2863 14.3797C39.2863 16.2635 41.0043 17.7905 43.1235 17.7905Z" fill="#21CBAC"/>
<path d="M42.3132 11.8216H43.934V13.6851H46.108V15.0743H43.934V16.9378H42.3132V15.0745H40.1391V13.6852H42.3132V11.8216Z" fill="white"/>
<path d="M32.6197 51.8096C33.5599 57.8097 53.518 57.6397 53.5641 51.8102L60.1278 60.4287L54.9296 82.2143C51.1614 83.0215 47.193 83.4546 43.0921 83.4546C39.7473 83.4546 36.4911 83.1657 33.359 82.6222L24.0425 61.1169L32.6197 51.8096Z" fill="#FEFEFE"/>
<path d="M34.5251 51.3451C11.3228 57.174 21.5295 56.5 13.9825 69.2958C17.1367 71.6 17.6042 71.116 21.5295 72.6273L25.7293 74.0141C25.7564 73.947 25.8394 73.9051 25.9296 73.913C26.0197 73.9209 26.0883 73.977 26.0938 74.0473L26.4303 80.942C31.5728 82.5604 37.1968 83.4537 43.0929 83.4537V69.1828L34.5259 51.3444L34.5251 51.3451Z" fill="#21CBAC"/>
<path d="M23.4005 79.8842C19.4752 78.3729 15.8814 76.4248 12.7273 74.1206L13.4435 71.3779L13.9825 69.2958L25.7293 74.014L23.4005 79.8842Z" fill="#614335"/>
<path d="M51.6543 51.3857C74.8755 57.1584 64.5 57.5 73.4569 74.1208C70.3027 76.4249 66.7083 78.3731 62.783 79.885L60.4542 74.0149C60.4278 73.9478 60.344 73.9052 60.2532 73.9138C60.1631 73.9224 60.0945 73.9784 60.0897 74.0481L59.7547 80.9428C54.6123 82.5612 48.9874 83.4545 43.093 83.4545V69.1834L51.6543 51.3857Z" fill="#23BA9F"/>
<path d="M62.783 79.8851C66.7083 78.3731 70.3027 76.425 73.4569 74.1208L71.5 70L60.4542 74.0149L62.783 79.8851Z" fill="#614335"/>
</g>
<circle cx="43" cy="43" r="41" stroke="#DEDEDE" stroke-width="3"/>
</svg>
