<svg width="86" height="86" viewBox="0 0 86 86" fill="none" xmlns="http://www.w3.org/2000/svg">
<path d="M43.0001 83.9995C65.6436 83.9995 83.9998 65.6433 83.9998 42.9998C83.9998 20.3562 65.6436 2 43.0001 2C20.3565 2 2.00031 20.3562 2.00031 42.9998C2.00031 65.6433 20.3565 83.9995 43.0001 83.9995Z" fill="#DEDEDE"/>
<mask id="mask0" mask-type="alpha" maskUnits="userSpaceOnUse" x="2" y="2" width="82" height="82">
<circle cx="43" cy="43" r="41" fill="#C4C4C4"/>
</mask>
<g mask="url(#mask0)">
<path d="M34.6371 46.691C40.2117 46.691 45.7863 46.691 51.3605 46.691L51.4519 47.6626L43.2792 58.194L34.5 47.5586L34.6369 46.6916L34.6371 46.691Z" fill="#B3B3B3"/>
<mask id="mask1" mask-type="alpha" maskUnits="userSpaceOnUse" x="15" y="5" width="56" height="67">
<path d="M49.4314 45.023V50.0143H50.5194C61.3351 50.0143 70.1031 58.7639 70.1031 69.5571V72H15.7039V69.5571C15.7039 58.7639 24.4718 50.0143 35.2876 50.0143H36.3756V45.023C31.6871 42.8003 28.3169 38.2579 27.7547 32.882C26.1704 32.6585 24.9517 31.2999 24.9517 29.6571V25.8571C24.9517 24.2432 26.128 22.9035 27.6717 22.645V20.9714C27.6717 12.5767 34.4912 5.77142 42.9035 5.77142C51.3157 5.77142 58.1352 12.5767 58.1352 20.9714V22.645C59.6789 22.9035 60.8552 24.2432 60.8552 25.8571V29.6571C60.8552 31.2999 59.6366 32.6585 58.0522 32.882C57.49 38.2579 54.1199 42.8003 49.4314 45.023Z" fill="white"/>
</mask>
<g mask="url(#mask1)">
<path d="M49.4314 45.023V50.0143H50.5194C61.3351 50.0143 70.1031 58.7639 70.1031 69.5571V72H15.7039V69.5571C15.7039 58.7639 24.4718 50.0143 35.2876 50.0143H36.3756V45.023C31.6871 42.8003 28.3169 38.2579 27.7547 32.882C26.1704 32.6585 24.9517 31.2999 24.9517 29.6571V25.8571C24.9517 24.2432 26.128 22.9035 27.6717 22.645V20.9714C27.6717 12.5767 34.4912 5.77142 42.9035 5.77142C51.3157 5.77142 58.1352 12.5767 58.1352 20.9714V22.645C59.6789 22.9035 60.8552 24.2432 60.8552 25.8571V29.6571C60.8552 31.2999 59.6366 32.6585 58.0522 32.882C57.49 38.2579 54.1199 42.8003 49.4314 45.023Z" fill="#D0C6AC"/>
<path d="M87.5108 5.77142H15.7039V81.7714H87.5108V5.77142Z" fill="#EDB98A"/>
<path fill-rule="evenodd" clip-rule="evenodd" d="M58.1352 27.2143V33.4572C58.1352 41.8519 51.3157 48.6572 42.9035 48.6572C34.4912 48.6572 27.6717 41.8519 27.6717 33.4572V27.2143V31.2857C27.6717 39.6805 34.4912 46.4857 42.9035 46.4857C51.3157 46.4857 58.1352 39.6805 58.1352 31.2857V27.2143Z" fill="black" fill-opacity="0.1"/>
</g>
<path d="M28.7855 51.7375L31.625 50.7868L33.9132 49.0391L41.9926 54.2477H44.0047L52.0866 49.0329L57.2134 51.7381L66.1222 64.6096L59.0668 97.1467C53.9525 98.3524 48.5647 98.9995 42.9985 98.9995C38.4589 98.9995 34.0383 98.5682 29.7872 97.7563L17.1415 65.638L28.7848 51.7377L28.7855 51.7375Z" fill="#15BDB2"/>
<path d="M54.6223 50.11L51.3605 46.691L44.0056 54.2478L50.3187 60.2104L54.6223 50.11Z" fill="#21D0C3"/>
<path d="M31.3713 50.0499L34.6373 46.691L41.9927 54.2478L35.4288 60.1491L31.3713 50.0499Z" fill="#21D0C3"/>
<path d="M31.3718 50.0499L9.7521 56.0258C8.87296 56.2683 8.32077 56.9038 8.14171 57.6752L1.78427 85.0594C6.06561 88.501 10.9437 91.4101 16.2717 93.6677L19.4323 84.9003C19.4691 84.7997 19.5816 84.7369 19.7046 84.7495C19.8272 84.7618 19.9205 84.8453 19.9273 84.9507L20.3836 95.2479C27.3635 97.6654 34.9981 98.9994 43.0006 98.9994V95.5804L31.3723 50.0501L31.3718 50.0499Z" fill="white"/>
<path d="M31.3718 50.0499L28.8956 50.6965L22.3355 60.211L30.6171 60.4316L25.5328 62.8921L43.0008 95.5808L31.3725 50.0503L31.3718 50.0499Z" fill="#EEF3F7"/>
<path d="M54.6223 50.11L76.2486 56.0259C77.1292 56.2667 77.6795 56.9038 77.8585 57.6752L84.2162 85.0599C79.9344 88.5014 75.0561 91.4108 69.7278 93.6685L66.5668 84.9007C66.5305 84.8001 66.4168 84.7373 66.2945 84.7499C66.1719 84.7622 66.0795 84.8461 66.0723 84.9511L65.6171 95.2483C58.6372 97.6659 51.0026 98.9998 43.0006 98.9998H43.0001V95.5808L54.6221 50.1106L54.6223 50.11Z" fill="#EEF3F7"/>
<path d="M54.6223 50.11L55.9969 50.4655L63.6594 60.271L55.3777 60.492L60.4625 62.9527L43.0001 95.5808L54.6221 50.1106V50.1102H54.6223V50.11Z" fill="white"/>
<path d="M43.0001 95.5804L46.407 82.2518L44.0919 55.9788L45.3533 55.5212L44.0049 54.248H41.9928L40.61 55.4915L41.908 55.979L39.6507 82.4646L43.0004 95.5806L43.0001 95.5804Z" fill="#0F7986"/>
<path d="M64.1865 78.4938C61.8451 78.1501 60.2748 76.258 60.6786 74.2684C61.0829 72.2786 63.309 70.9428 65.6497 71.2863C67.9911 71.6299 69.5615 73.5225 69.1576 75.5127C68.7533 77.5023 66.5272 78.8376 64.186 78.494L64.1865 78.4938Z" fill="#FEFEFE"/>
<path d="M64.2289 78.2838C62.0239 77.9601 60.545 76.179 60.9259 74.3042C61.3067 72.4298 63.4027 71.1725 65.6082 71.4958C67.8132 71.8195 69.2921 73.6016 68.9113 75.4758C68.5304 77.3506 66.4344 78.6071 64.2289 78.2834V78.2838Z" fill="#0F7986"/>
<path d="M64.5369 76.7683C63.3172 76.5896 62.4987 75.6029 62.709 74.566C62.9192 73.5288 64.0801 72.8336 65.2995 73.0123C66.5197 73.1914 67.3381 74.1767 67.1274 75.2142C66.9172 76.251 65.7568 76.9466 64.5369 76.7679V76.7683Z" fill="#EBECEC"/>
<path d="M64.8005 73.2167L65.7856 73.3613L66.3153 70.7535L65.3302 70.6089L64.8005 73.2167Z" fill="#FEFEFE"/>
<path d="M31.8063 79.2171L33.6523 78.9057C34.4367 78.773 35.0862 78.3808 35.5008 77.854C35.9142 77.3273 36.094 76.6673 35.9379 76.0003L33.7669 66.7034C32.9473 63.1951 29.7185 61.4061 26.029 61.0095C24.6152 60.8575 23.133 60.9129 21.697 61.1545C20.2598 61.3962 18.8667 61.8257 17.629 62.4247C14.4054 63.9854 12.2329 66.6836 13.0535 70.1975L15.2245 79.4948C15.3806 80.1616 15.843 80.7132 16.4622 81.0657L16.4639 81.0653C17.0836 81.4177 17.8591 81.5695 18.6436 81.4372L20.4886 81.1258L20.3376 80.4792L18.4922 80.7905C17.917 80.8875 17.3472 80.7756 16.8933 80.5182L16.8937 80.5178C16.4395 80.2592 16.1001 79.8546 15.9858 79.3661L13.8147 70.0688C13.0701 66.8803 15.0607 64.4227 18.0103 62.9957C19.1761 62.4309 20.4907 62.0259 21.8477 61.797C23.2047 61.5685 24.6021 61.5169 25.9338 61.6599C29.3109 62.0227 32.2641 63.6483 33.0068 66.8307L35.1783 76.128C35.292 76.6165 35.1602 77.1004 34.8569 77.4871C34.5527 77.8728 34.0767 78.1612 33.5013 78.2579L31.6554 78.5692L31.8063 79.2159V79.2169V79.2169V79.2171Z" fill="#21D0C3"/>
<path d="M34.3526 68.0812L34.021 66.6612C33.1765 63.0441 29.8545 61.2006 26.0614 60.7924C24.6202 60.6378 23.1108 60.6932 21.6478 60.94C20.1849 61.186 18.7648 61.6243 17.5036 62.2343C14.1881 63.8392 11.955 66.6175 12.8011 70.2409L13.1332 71.661L14.4003 71.4466L14.0686 70.0266C13.3498 66.947 15.2799 64.5694 18.1376 63.1862C19.28 62.6335 20.5681 62.2369 21.8986 62.0126C23.2287 61.7881 24.5986 61.7377 25.9034 61.8777C29.1755 62.2291 32.0363 63.8002 32.7547 66.8745L33.0863 68.2946L34.3538 68.0806L34.3526 68.0812Z" fill="#4D4D4D"/>
<path d="M19.0244 81.5157L20.0121 81.3489C20.2601 81.5854 20.6437 81.7067 21.0347 81.641C21.6223 81.5418 22.004 81.0569 21.8873 80.557C21.7711 80.058 21.2001 79.7335 20.6126 79.8327C20.2207 79.8984 19.9212 80.1357 19.7988 80.4345L18.8119 80.6009L19.0251 81.5153L19.0244 81.5157Z" fill="#076673"/>
<path d="M32.5911 79.2269L31.6046 79.3936C31.482 79.6922 31.1825 79.9291 30.7913 79.9954C30.2037 80.0943 29.6332 79.7701 29.5165 79.2703C29.4003 78.7712 29.7816 78.2859 30.3687 78.1871C30.7599 78.1214 31.144 78.2433 31.3908 78.4792L32.3778 78.3124L32.5911 79.2269Z" fill="#076673"/>
<path d="M22.2481 60.856L21.8714 59.2432L21.1226 59.3697L20.3747 59.4958L20.7556 61.1246C21.0408 61.0539 21.3296 60.9937 21.6211 60.9445C21.829 60.9092 22.0376 60.8803 22.2481 60.856Z" fill="#666666"/>
<path d="M20.6327 80.6182C20.8103 80.5883 20.9259 80.4409 20.8905 80.2904C20.8553 80.1392 20.6833 80.0408 20.505 80.0707C20.3271 80.1006 20.2117 80.2476 20.2471 80.3984C20.2825 80.5492 20.4548 80.648 20.6327 80.6176V80.6182Z" fill="#0F7986"/>
<path d="M30.3951 78.9679C30.5726 78.938 30.6876 78.791 30.6525 78.6406C30.6173 78.489 30.4453 78.3909 30.2669 78.4208C30.0891 78.4507 29.9737 78.5977 30.0091 78.749C30.0438 78.9 30.2168 78.998 30.3951 78.9679Z" fill="#0F7986"/>
<path d="M64.4171 76.7509C63.2633 76.5817 62.4896 75.6492 62.6884 74.6678C62.8873 73.6875 63.9838 73.0294 65.1378 73.199C66.2916 73.3681 67.0658 74.3007 66.8666 75.281C66.6671 76.2618 65.57 76.9198 64.4166 76.7509H64.4171Z" fill="#FEFEFE"/>
<path d="M31.3824 50.5336C31.3493 50.534 19.6964 50.616 21.6647 59.2817L20.5809 59.4578C18.3621 49.6885 31.3327 49.5984 31.3695 49.598L31.3824 50.5336Z" fill="#4D4D4D"/>
<path d="M54.6352 49.6422C56.5365 49.6858 60.2115 50.1263 63.0404 53.0511C65.8086 55.9132 67.7492 61.1696 66.2982 70.8071L65.2058 70.6897C66.6104 61.3619 64.7954 56.3396 62.1905 53.6457C59.6455 51.0138 56.3269 50.6172 54.6101 50.5779L54.6359 49.6422H54.6352Z" fill="#4D4D4D"/>
<mask id="mask2" mask-type="alpha" maskUnits="userSpaceOnUse" x="37" y="35" width="12" height="7">
<path fill-rule="evenodd" clip-rule="evenodd" d="M37.7676 40.4795C38.0553 37.9032 40.245 35.9 42.9035 35.9C45.5702 35.9 47.7651 37.9156 48.0419 40.5034C48.0642 40.7117 47.8311 41.0571 47.539 41.0571C43.4879 41.0571 40.3842 41.0571 38.3032 41.0571C38.0094 41.0571 37.7388 40.7373 37.7676 40.4795Z" fill="white"/>
</mask>
<g mask="url(#mask2)">
<path fill-rule="evenodd" clip-rule="evenodd" d="M37.7676 40.4795C38.0553 37.9032 40.245 35.9 42.9035 35.9C45.5702 35.9 47.7651 37.9156 48.0419 40.5034C48.0642 40.7117 47.8311 41.0571 47.539 41.0571C43.4879 41.0571 40.3842 41.0571 38.3032 41.0571C38.0094 41.0571 37.7388 40.7373 37.7676 40.4795Z" fill="black" fill-opacity="0.7"/>
<path d="M45.8955 32.9143H40.1836C39.4325 32.9143 38.8236 33.5219 38.8236 34.2714V35.9C38.8236 36.6496 39.4325 37.2572 40.1836 37.2572H45.8955C46.6466 37.2572 47.2555 36.6496 47.2555 35.9V34.2714C47.2555 33.5219 46.6466 32.9143 45.8955 32.9143Z" fill="white"/>
<path d="M41.5435 44.8572C43.1959 44.8572 44.5355 43.5204 44.5355 41.8715C44.5355 40.2225 43.1959 38.8857 41.5435 38.8857C39.8911 38.8857 38.5516 40.2225 38.5516 41.8715C38.5516 43.5204 39.8911 44.8572 41.5435 44.8572Z" fill="#FF4F6D"/>
<path d="M44.2635 44.8572C45.9159 44.8572 47.2555 43.5204 47.2555 41.8715C47.2555 40.2225 45.9159 38.8857 44.2635 38.8857C42.6111 38.8857 41.2715 40.2225 41.2715 41.8715C41.2715 43.5204 42.6111 44.8572 44.2635 44.8572Z" fill="#FF4F6D"/>
</g>
<path fill-rule="evenodd" clip-rule="evenodd" d="M39.6395 31.2858C39.6395 32.485 41.1008 33.4572 42.9035 33.4572C44.7061 33.4572 46.1674 32.485 46.1674 31.2858" fill="black" fill-opacity="0.16"/>
<path d="M35.8316 28.0286C36.7329 28.0286 37.4636 27.2995 37.4636 26.4001C37.4636 25.5006 36.7329 24.7715 35.8316 24.7715C34.9303 24.7715 34.1996 25.5006 34.1996 26.4001C34.1996 27.2995 34.9303 28.0286 35.8316 28.0286Z" fill="black" fill-opacity="0.6"/>
<path d="M49.9754 28.0286C50.8767 28.0286 51.6074 27.2995 51.6074 26.4001C51.6074 25.5006 50.8767 24.7715 49.9754 24.7715C49.0741 24.7715 48.3434 25.5006 48.3434 26.4001C48.3434 27.2995 49.0741 28.0286 49.9754 28.0286Z" fill="black" fill-opacity="0.6"/>
<path d="M31.9231 22.9145C32.9879 21.4193 35.9072 20.5808 38.4218 21.1971C38.7136 21.2686 39.0082 21.0905 39.0798 20.7993C39.1515 20.5082 38.973 20.2142 38.6813 20.1427C35.761 19.427 32.3805 20.3979 31.0362 22.2856C30.8622 22.5299 30.9196 22.8688 31.1645 23.0425C31.4094 23.2162 31.749 23.1589 31.9231 22.9145Z" fill="black" fill-opacity="0.6"/>
<path d="M53.8839 22.9145C52.8191 21.4193 49.8998 20.5808 47.3852 21.1971C47.0934 21.2686 46.7988 21.0905 46.7272 20.7993C46.6555 20.5082 46.834 20.2142 47.1257 20.1427C50.046 19.427 53.4265 20.3979 54.7708 22.2856C54.9448 22.5299 54.8874 22.8688 54.6425 23.0425C54.3976 23.2162 54.058 23.1589 53.8839 22.9145Z" fill="black" fill-opacity="0.6"/>
<mask id="mask3" mask-type="alpha" maskUnits="userSpaceOnUse" x="7" y="-4" width="72" height="76">
<path d="M78.8069 -4H7V72H78.8069V-4Z" fill="white"/>
</mask>
<g mask="url(#mask3)">
<mask id="mask4" mask-type="alpha" maskUnits="userSpaceOnUse" x="27" y="22" width="32" height="25">
<path fill-rule="evenodd" clip-rule="evenodd" d="M47.6439 42.1887C46.9602 42.8113 46.2319 43.0914 45.3114 42.8955C45.153 42.8619 44.5072 41.6637 42.9034 41.6637C41.2996 41.6637 40.6539 42.8619 40.4954 42.8955C39.5749 43.0914 38.8466 42.8113 38.1629 42.1887C36.8777 41.018 35.8089 39.4037 36.4511 37.6424C36.7858 36.7244 37.3302 35.7165 38.3205 35.4239C39.378 35.1117 40.8626 35.4234 41.9283 35.2101C42.2735 35.141 42.6507 35.0181 42.9034 34.8143C43.1561 35.0181 43.5334 35.141 43.8784 35.2101C44.9442 35.4234 46.4289 35.1117 47.4863 35.4239C48.4766 35.7165 49.021 36.7244 49.3558 37.6424C49.998 39.4037 48.9292 41.018 47.6439 42.1887ZM58.1573 22.6C57.2297 24.8801 57.5879 27.7186 57.4162 30.1121C57.2768 32.0575 56.8669 34.9733 55.1359 36.2297C54.2507 36.8722 52.6394 37.952 51.4827 37.6508C50.6865 37.4435 50.6015 35.1645 49.5552 34.3114C48.3683 33.3438 46.8863 32.9187 45.392 32.9843C44.7472 33.0127 43.4431 33.0059 42.9034 33.5007C42.3637 33.0059 41.0598 33.0127 40.415 32.9843C38.9206 32.9187 37.4385 33.3438 36.2517 34.3114C35.2053 35.1645 35.1205 37.4435 34.3242 37.6508C33.1676 37.952 31.5563 36.8722 30.671 36.2297C28.9398 34.9733 28.5301 32.0575 28.3905 30.1121C28.219 27.7186 28.5772 24.8801 27.6496 22.6C27.1984 22.6 27.496 26.9779 27.496 26.9779V32.5031C27.5046 36.6528 30.102 42.8637 35.8609 45.2353C37.2694 45.8153 40.4597 46.7572 42.9034 46.7572C45.3472 46.7572 48.5375 45.9049 49.9459 45.325C55.7049 42.9533 58.3023 36.6528 58.311 32.5031V26.9779C58.311 26.9779 58.6085 22.6 58.1573 22.6Z" fill="white"/>
</mask>
<g mask="url(#mask4)">
<path fill-rule="evenodd" clip-rule="evenodd" d="M47.6439 42.1887C46.9602 42.8113 46.2319 43.0914 45.3114 42.8955C45.153 42.8619 44.5072 41.6637 42.9034 41.6637C41.2996 41.6637 40.6539 42.8619 40.4954 42.8955C39.5749 43.0914 38.8466 42.8113 38.1629 42.1887C36.8777 41.018 35.8089 39.4037 36.4511 37.6424C36.7858 36.7244 37.3302 35.7165 38.3205 35.4239C39.378 35.1117 40.8626 35.4234 41.9283 35.2101C42.2735 35.141 42.6507 35.0181 42.9034 34.8143C43.1561 35.0181 43.5334 35.141 43.8784 35.2101C44.9442 35.4234 46.4289 35.1117 47.4863 35.4239C48.4766 35.7165 49.021 36.7244 49.3558 37.6424C49.998 39.4037 48.9292 41.018 47.6439 42.1887ZM58.1573 22.6C57.2297 24.8801 57.5879 27.7186 57.4162 30.1121C57.2768 32.0575 56.8669 34.9733 55.1359 36.2297C54.2507 36.8722 52.6394 37.952 51.4827 37.6508C50.6865 37.4435 50.6015 35.1645 49.5552 34.3114C48.3683 33.3438 46.8863 32.9187 45.392 32.9843C44.7472 33.0127 43.4431 33.0059 42.9034 33.5007C42.3637 33.0059 41.0598 33.0127 40.415 32.9843C38.9206 32.9187 37.4385 33.3438 36.2517 34.3114C35.2053 35.1645 35.1205 37.4435 34.3242 37.6508C33.1676 37.952 31.5563 36.8722 30.671 36.2297C28.9398 34.9733 28.5301 32.0575 28.3905 30.1121C28.219 27.7186 28.5772 24.8801 27.6496 22.6C27.1984 22.6 27.496 26.9779 27.496 26.9779V32.5031C27.5046 36.6528 30.102 42.8637 35.8609 45.2353C37.2694 45.8153 40.4597 46.7572 42.9034 46.7572C45.3472 46.7572 48.5375 45.9049 49.9459 45.325C55.7049 42.9533 58.3023 36.6528 58.311 32.5031V26.9779C58.311 26.9779 58.6085 22.6 58.1573 22.6Z" fill="#331B0C"/>
<path d="M83.1588 15.5428H11.3519V81.7714H83.1588V15.5428Z" fill="#B58143"/>
</g>
<g filter="url(#filter0_d)">
<path fill-rule="evenodd" clip-rule="evenodd" d="M45.4778 23.5212C46.5428 21.3673 48.7657 19.8857 51.3353 19.8857C53.7614 19.8857 55.8784 21.2064 57.0037 23.1667C57.0609 23.1511 57.1211 23.1428 57.1832 23.1428H59.3592C59.7347 23.1428 60.0392 23.4466 60.0392 23.8214C60.0392 24.1962 59.7347 24.5 59.3592 24.5H57.5812C57.7646 25.1011 57.8632 25.739 57.8632 26.4C57.8632 29.9977 54.9406 32.9143 51.3353 32.9143C47.73 32.9143 44.8074 29.9977 44.8074 26.4C44.8074 26.014 44.841 25.6359 44.9055 25.2684C44.8825 24.0807 43.9679 23.1428 42.866 23.1428C41.8496 23.1428 40.9926 23.9408 40.8476 24.9967C40.9471 25.4487 40.9995 25.9182 40.9995 26.4C40.9995 29.9977 38.0768 32.9143 34.4716 32.9143C30.8663 32.9143 27.9437 29.9977 27.9437 26.4C27.9437 25.739 28.0423 25.1011 28.2257 24.5H26.4477C26.0721 24.5 25.7677 24.1962 25.7677 23.8214C25.7677 23.4466 26.0721 23.1428 26.4477 23.1428H28.6237C28.6858 23.1428 28.746 23.1511 28.8032 23.1667C29.9285 21.2064 32.0454 19.8857 34.4716 19.8857C37.0153 19.8857 39.2192 21.3376 40.2965 23.4563C40.8615 22.6106 41.8017 22.0571 42.866 22.0571C43.9573 22.0571 44.9181 22.6391 45.4778 23.5212ZM34.4716 31.8285C37.476 31.8285 39.9115 29.3981 39.9115 26.4C39.9115 23.4018 37.476 20.9714 34.4716 20.9714C31.4672 20.9714 29.0317 23.4018 29.0317 26.4C29.0317 29.3981 31.4672 31.8285 34.4716 31.8285ZM51.3353 31.8285C54.3397 31.8285 56.7752 29.3981 56.7752 26.4C56.7752 23.4018 54.3397 20.9714 51.3353 20.9714C48.3309 20.9714 45.8954 23.4018 45.8954 26.4C45.8954 29.3981 48.3309 31.8285 51.3353 31.8285Z" fill="black"/>
</g>
<path fill-rule="evenodd" clip-rule="evenodd" d="M45.4778 23.5212C46.5428 21.3673 48.7657 19.8857 51.3353 19.8857C53.7614 19.8857 55.8784 21.2064 57.0037 23.1667C57.0609 23.1511 57.1211 23.1428 57.1832 23.1428H59.3592C59.7347 23.1428 60.0392 23.4466 60.0392 23.8214C60.0392 24.1962 59.7347 24.5 59.3592 24.5H57.5812C57.7646 25.1011 57.8632 25.739 57.8632 26.4C57.8632 29.9977 54.9406 32.9143 51.3353 32.9143C47.7301 32.9143 44.8074 29.9977 44.8074 26.4C44.8074 26.014 44.841 25.6359 44.9055 25.2684C44.8825 24.0807 43.9679 23.1428 42.866 23.1428C41.8496 23.1428 40.9926 23.9408 40.8476 24.9967C40.9471 25.4487 40.9995 25.9182 40.9995 26.4C40.9995 29.9977 38.0768 32.9143 34.4716 32.9143C30.8663 32.9143 27.9437 29.9977 27.9437 26.4C27.9437 25.739 28.0423 25.1011 28.2257 24.5H26.4477C26.0721 24.5 25.7677 24.1962 25.7677 23.8214C25.7677 23.4466 26.0721 23.1428 26.4477 23.1428H28.6237C28.6858 23.1428 28.746 23.1511 28.8032 23.1667C29.9285 21.2064 32.0454 19.8857 34.4716 19.8857C37.0153 19.8857 39.2192 21.3376 40.2965 23.4563C40.8615 22.6106 41.8017 22.0571 42.866 22.0571C43.9573 22.0571 44.9181 22.6391 45.4778 23.5212ZM34.4716 31.8285C37.476 31.8285 39.9115 29.3981 39.9115 26.4C39.9115 23.4018 37.476 20.9714 34.4716 20.9714C31.4672 20.9714 29.0317 23.4018 29.0317 26.4C29.0317 29.3981 31.4672 31.8285 34.4716 31.8285ZM51.3353 31.8285C54.3397 31.8285 56.7752 29.3981 56.7752 26.4C56.7752 23.4018 54.3397 20.9714 51.3353 20.9714C48.3309 20.9714 45.8954 23.4018 45.8954 26.4C45.8954 29.3981 48.3309 31.8285 51.3353 31.8285Z" fill="#0F7986"/>
</g>
</g>
<mask id="mask5" mask-type="alpha" maskUnits="userSpaceOnUse" x="2" y="1" width="82" height="82">
<circle cx="43" cy="42" r="41" fill="#C4C4C4"/>
</mask>
<g mask="url(#mask5)">
</g>
<mask id="mask6" mask-type="alpha" maskUnits="userSpaceOnUse" x="2" y="2" width="82" height="82">
<circle cx="43" cy="43" r="41" fill="#C4C4C4"/>
</mask>
<g mask="url(#mask6)">
</g>
<circle cx="43" cy="43" r="41" stroke="#DEDEDE" stroke-width="3"/>
<defs>
<filter id="filter0_d" x="21.7677" y="17.8857" width="42.2715" height="21.0286" filterUnits="userSpaceOnUse" color-interpolation-filters="sRGB">
<feFlood flood-opacity="0" result="BackgroundImageFix"/>
<feColorMatrix in="SourceAlpha" type="matrix" values="0 0 0 0 0 0 0 0 0 0 0 0 0 0 0 0 0 0 127 0"/>
<feOffset dy="2"/>
<feGaussianBlur stdDeviation="2"/>
<feColorMatrix type="matrix" values="0 0 0 0 0 0 0 0 0 0 0 0 0 0 0 0 0 0 0.1 0"/>
<feBlend mode="normal" in2="BackgroundImageFix" result="effect1_dropShadow"/>
<feBlend mode="normal" in="SourceGraphic" in2="effect1_dropShadow" result="shape"/>
</filter>
</defs>
</svg>
