<svg width="86" height="86" viewBox="0 0 86 86" fill="none" xmlns="http://www.w3.org/2000/svg">
<path d="M43.0001 83.9995C65.6436 83.9995 83.9998 65.6433 83.9998 42.9998C83.9998 20.3562 65.6436 2 43.0001 2C20.3565 2 2.00031 20.3562 2.00031 42.9998C2.00031 65.6433 20.3565 83.9995 43.0001 83.9995Z" fill="#DEDEDE"/>
<mask id="mask0" mask-type="alpha" maskUnits="userSpaceOnUse" x="2" y="2" width="82" height="82">
<circle cx="43" cy="43" r="41" fill="#C4C4C4"/>
</mask>
<g mask="url(#mask0)">
</g>
<mask id="mask1" mask-type="alpha" maskUnits="userSpaceOnUse" x="2" y="1" width="82" height="82">
<circle cx="43" cy="42" r="41" fill="#C4C4C4"/>
</mask>
<g mask="url(#mask1)">
</g>
<mask id="mask2" mask-type="alpha" maskUnits="userSpaceOnUse" x="2" y="2" width="82" height="82">
<circle cx="43" cy="43" r="41" fill="#C4C4C4"/>
</mask>
<g mask="url(#mask2)">
<path d="M19.4007 66.6714C19.0039 67.2461 18.0705 71.7265 17 75.6094C24.3505 80.2644 33.3193 83 43 83C52.6807 83 61.6484 80.2644 69 75.6086C67.9295 71.7257 66.9951 67.2462 66.5984 66.6714C59.8628 56.9093 49.4808 61.1711 48.7726 50C48.7726 50 45.4325 52.2367 42.8817 52.2581C40.3308 52.2787 37.2239 50.1419 37.2239 50.1419C36.5176 61.3034 26.1323 56.9166 19.4014 66.6722L19.4007 66.6714Z" fill="#614335"/>
<mask id="mask3" mask-type="alpha" maskUnits="userSpaceOnUse" x="16" y="15" width="55" height="67">
<path d="M49.8182 54.2515V59.2429H50.9091C61.754 59.2429 70.5455 67.9925 70.5455 78.7857V81.2286H16V78.7857C16 67.9925 24.7915 59.2429 35.6364 59.2429H36.7273V54.2515C32.0262 52.0289 28.647 47.4865 28.0832 42.1106C26.4946 41.8871 25.2727 40.5284 25.2727 38.8857V35.0857C25.2727 33.4718 26.4522 32.132 28 31.8736V30.2C28 21.8053 34.8378 15 43.2727 15C51.7076 15 58.5455 21.8053 58.5455 30.2V31.8736C60.0933 32.132 61.2727 33.4718 61.2727 35.0857V38.8857C61.2727 40.5284 60.0508 41.8871 58.4622 42.1106C57.8985 47.4865 54.5193 52.0289 49.8182 54.2515Z" fill="white"/>
</mask>
<g mask="url(#mask3)">
<path d="M49.5454 54.023V59.0143H50.6364C61.4812 59.0143 70.2727 67.7639 70.2727 78.5571V81H15.7273V78.5571C15.7273 67.7639 24.5188 59.0143 35.3636 59.0143H36.4545V54.023C31.7534 51.8004 28.3742 47.2579 27.8105 41.882C26.2219 41.6585 25 40.2999 25 38.6571V34.8571C25 33.2432 26.1794 31.9035 27.7273 31.645V29.9714C27.7273 21.5767 34.5651 14.7714 43 14.7714C51.4349 14.7714 58.2727 21.5767 58.2727 29.9714V31.645C59.8206 31.9035 61 33.2432 61 34.8571V38.6571C61 40.2999 59.7781 41.6585 58.1895 41.882C57.6257 47.2579 54.2465 51.8004 49.5454 54.023Z" fill="#D0C6AC"/>
<path d="M87.7273 14.7714H15.7273V90.7714H87.7273V14.7714Z" fill="#614335"/>
<path fill-rule="evenodd" clip-rule="evenodd" d="M58.2727 36.2143V42.4572C58.2727 50.8519 51.4349 57.6572 43 57.6572C34.5651 57.6572 27.7273 50.8519 27.7273 42.4572V36.2143V40.2857C27.7273 48.6805 34.5651 55.4857 43 55.4857C51.4349 55.4857 58.2727 48.6805 58.2727 40.2857V36.2143Z" fill="black" fill-opacity="0.1"/>
</g>
<path d="M46.9389 45H38.7884C37.2484 45 36 46.2424 36 47.7751C36 49.3077 37.2484 50.5502 38.7884 50.5502H46.9389C48.4789 50.5502 49.7273 49.3077 49.7273 47.7751C49.7273 46.2424 48.4789 45 46.9389 45Z" fill="black" fill-opacity="0.6"/>
<mask id="mask4" mask-type="alpha" maskUnits="userSpaceOnUse" x="36" y="45" width="14" height="6">
<path d="M46.9389 45.4269H38.7883C37.4853 45.4269 36.429 46.4782 36.429 47.7751C36.429 49.0719 37.4853 50.1232 38.7883 50.1232H46.9389C48.242 50.1232 49.2983 49.0719 49.2983 47.7751C49.2983 46.4782 48.242 45.4269 46.9389 45.4269Z" fill="white"/>
</mask>
<g mask="url(#mask4)">
<path d="M46.9389 45.4269H38.7883C37.4853 45.4269 36.429 46.4782 36.429 47.7751C36.429 49.0719 37.4853 50.1232 38.7883 50.1232H46.9389C48.242 50.1232 49.2983 49.0719 49.2983 47.7751C49.2983 46.4782 48.242 45.4269 46.9389 45.4269Z" fill="white"/>
<path fill-rule="evenodd" clip-rule="evenodd" d="M46.5099 48.202H44.5795V50.7636H43.7216V48.202H41.7912V50.7636H40.9332V48.202H39.0028V50.7636H38.1449V48.202H36.429V47.3482H38.1449V44.7866H39.0028V47.3482H40.9332V44.7866H41.7912V47.3482H43.7216V44.7866H44.5795V47.3482H46.5099V44.7866H47.3679V47.3482H49.2697V48.202H47.3679V50.7636H46.5099V48.202Z" fill="#E6E6E6"/>
</g>
<path fill-rule="evenodd" clip-rule="evenodd" d="M39.7273 40.2857C39.7273 41.485 41.1925 42.4571 43 42.4571C44.8075 42.4571 46.2728 41.485 46.2728 40.2857" fill="black" fill-opacity="0.16"/>
<path d="M35.9091 39.2C38.0178 39.2 39.7273 37.4987 39.7273 35.4C39.7273 33.3014 38.0178 31.6 35.9091 31.6C33.8004 31.6 32.0909 33.3014 32.0909 35.4C32.0909 37.4987 33.8004 39.2 35.9091 39.2Z" fill="white"/>
<path d="M50.0909 39.2C52.1996 39.2 53.9091 37.4987 53.9091 35.4C53.9091 33.3014 52.1996 31.6 50.0909 31.6C47.9822 31.6 46.2727 33.3014 46.2727 35.4C46.2727 37.4987 47.9822 39.2 50.0909 39.2Z" fill="white"/>
<path d="M35.9091 37.0286C36.8128 37.0286 37.5455 36.2995 37.5455 35.4001C37.5455 34.5006 36.8128 33.7715 35.9091 33.7715C35.0054 33.7715 34.2727 34.5006 34.2727 35.4001C34.2727 36.2995 35.0054 37.0286 35.9091 37.0286Z" fill="black" fill-opacity="0.7"/>
<path d="M50.0909 37.0286C50.9947 37.0286 51.7273 36.2995 51.7273 35.4001C51.7273 34.5006 50.9947 33.7715 50.0909 33.7715C49.1872 33.7715 48.4546 34.5006 48.4546 35.4001C48.4546 36.2995 49.1872 37.0286 50.0909 37.0286Z" fill="black" fill-opacity="0.7"/>
<path fill-rule="evenodd" clip-rule="evenodd" d="M34.4323 29.0637C32.9688 29.6732 30.9537 31.6243 31.5587 33.0956C31.5785 33.1438 31.6585 33.139 31.6801 33.0886C32.1118 32.077 36.8482 29.4917 38.7611 29.254C38.9361 29.2323 39.0013 29.029 38.8572 28.9516C37.6232 28.2887 35.7431 28.5164 34.4323 29.0637Z" fill="black" fill-opacity="0.6"/>
<path fill-rule="evenodd" clip-rule="evenodd" d="M51.8405 29.0637C53.304 29.6732 55.3191 31.6243 54.7141 33.0956C54.6943 33.1438 54.6143 33.139 54.5927 33.0886C54.161 32.077 49.4246 29.4917 47.5117 29.254C47.3366 29.2323 47.2715 29.029 47.4156 28.9516C48.6496 28.2887 50.5297 28.5164 51.8405 29.0637Z" fill="black" fill-opacity="0.6"/>
<mask id="mask5" mask-type="alpha" maskUnits="userSpaceOnUse" x="7" y="5" width="72" height="76">
<path d="M79 5H7V81H79V5Z" fill="white"/>
</mask>
<g mask="url(#mask5)">
<mask id="mask6" mask-type="alpha" maskUnits="userSpaceOnUse" x="27" y="31" width="32" height="25">
<path fill-rule="evenodd" clip-rule="evenodd" d="M47.7532 51.1887C47.0677 51.8113 46.3374 52.0914 45.4144 51.8955C45.2556 51.8619 44.6081 50.6637 42.9999 50.6637C41.3918 50.6637 40.7444 51.8619 40.5855 51.8955C39.6625 52.0914 38.9322 51.8113 38.2467 51.1887C36.958 50.018 35.8863 48.4037 36.5303 46.6424C36.8659 45.7244 37.4117 44.7165 38.4047 44.4239C39.465 44.1117 40.9537 44.4234 42.0222 44.2101C42.3684 44.141 42.7465 44.0181 42.9999 43.8143C43.2533 44.0181 43.6316 44.141 43.9776 44.2101C45.0462 44.4234 46.5349 44.1117 47.5952 44.4239C48.5881 44.7165 49.134 45.7244 49.4697 46.6424C50.1136 48.4037 49.0419 50.018 47.7532 51.1887ZM58.2948 31.6C57.3647 33.8801 57.7239 36.7186 57.5518 39.1121C57.412 41.0575 57.001 43.9733 55.2653 45.2297C54.3777 45.8722 52.7621 46.952 51.6023 46.6508C50.8039 46.4435 50.7188 44.1645 49.6696 43.3114C48.4795 42.3438 46.9935 41.9187 45.4952 41.9843C44.8487 42.0127 43.5411 42.0059 43 42.5007C42.4588 42.0059 41.1513 42.0127 40.5048 41.9843C39.0064 41.9187 37.5204 42.3438 36.3303 43.3114C35.2812 44.1645 35.1961 46.4435 34.3977 46.6508C33.2379 46.952 31.6223 45.8722 30.7346 45.2297C28.9988 43.9733 28.588 41.0575 28.448 39.1121C28.276 36.7186 28.6352 33.8801 27.7051 31.6C27.2526 31.6 27.5511 35.9779 27.5511 35.9779V41.5031C27.5597 45.6528 30.1641 51.8637 35.9385 54.2353C37.3507 54.8153 40.5496 55.7572 43 55.7572C45.4503 55.7572 48.6492 54.905 50.0614 54.325C55.8358 51.9533 58.4402 45.6528 58.4489 41.5031V35.9779C58.4489 35.9779 58.7473 31.6 58.2948 31.6Z" fill="white"/>
</mask>
<g mask="url(#mask6)">
<path fill-rule="evenodd" clip-rule="evenodd" d="M47.7532 51.1887C47.0677 51.8113 46.3374 52.0914 45.4144 51.8955C45.2556 51.8619 44.6081 50.6637 42.9999 50.6637C41.3918 50.6637 40.7444 51.8619 40.5855 51.8955C39.6625 52.0914 38.9322 51.8113 38.2467 51.1887C36.958 50.018 35.8863 48.4037 36.5303 46.6424C36.8659 45.7244 37.4117 44.7165 38.4047 44.4239C39.465 44.1117 40.9537 44.4234 42.0222 44.2101C42.3684 44.141 42.7465 44.0181 42.9999 43.8143C43.2533 44.0181 43.6316 44.141 43.9776 44.2101C45.0462 44.4234 46.5349 44.1117 47.5952 44.4239C48.5881 44.7165 49.134 45.7244 49.4697 46.6424C50.1136 48.4037 49.0419 50.018 47.7532 51.1887ZM58.2948 31.6C57.3647 33.8801 57.7239 36.7186 57.5518 39.1121C57.412 41.0575 57.001 43.9733 55.2653 45.2297C54.3777 45.8722 52.7621 46.952 51.6023 46.6508C50.8039 46.4435 50.7188 44.1645 49.6696 43.3114C48.4795 42.3438 46.9935 41.9187 45.4952 41.9843C44.8487 42.0127 43.5411 42.0059 43 42.5007C42.4588 42.0059 41.1513 42.0127 40.5048 41.9843C39.0064 41.9187 37.5204 42.3438 36.3303 43.3114C35.2812 44.1645 35.1961 46.4435 34.3977 46.6508C33.2379 46.952 31.6223 45.8722 30.7346 45.2297C28.9988 43.9733 28.588 41.0575 28.448 39.1121C28.276 36.7186 28.6352 33.8801 27.7051 31.6C27.2526 31.6 27.5511 35.9779 27.5511 35.9779V41.5031C27.5597 45.6528 30.1641 51.8637 35.9385 54.2353C37.3507 54.8153 40.5496 55.7572 43 55.7572C45.4503 55.7572 48.6492 54.905 50.0614 54.325C55.8358 51.9533 58.4402 45.6528 58.4489 41.5031V35.9779C58.4489 35.9779 58.7473 31.6 58.2948 31.6Z" fill="#331B0C"/>
</g>
<mask id="mask7" mask-type="alpha" maskUnits="userSpaceOnUse" x="26" y="12" width="34" height="21">
<path fill-rule="evenodd" clip-rule="evenodd" d="M32.4323 21.523C32.4659 21.5109 32.3826 21.5063 32.1826 21.5091C32.4257 21.5087 32.509 21.5133 32.4323 21.523ZM30.2137 18.0432C30.2131 18.0389 30.2183 18.0767 30.2137 18.0432V18.0432ZM59.5723 25.6718C59.5003 24.9376 59.3726 24.2079 59.1582 23.4905C58.9879 22.9204 58.7552 22.3764 58.48 21.8324C58.3138 21.5038 57.9257 21.0524 57.8801 20.6978C57.8351 20.3486 58.1709 19.9618 58.2425 19.5552C58.3121 19.1595 58.3002 18.7435 58.2002 18.3514C57.973 17.4609 57.2201 16.6329 56.0574 16.4008C55.7978 16.3489 55.2491 16.4128 55.0657 16.2901C54.8554 16.1494 54.7089 15.6701 54.5185 15.4779C53.9757 14.9298 53.129 14.5769 52.2361 14.6999C51.5786 14.7905 51.9562 14.9009 51.4633 14.5868C51.1892 14.4122 50.9844 14.1456 50.7182 13.9566C50.318 13.6726 49.859 13.4295 49.384 13.23C48.1413 12.7081 46.7239 12.3287 45.3357 12.1438C42.8033 11.8064 40.1006 12.1005 37.646 12.635C36.4246 12.901 35.195 13.2385 34.0606 13.6849C33.5741 13.8763 33.2934 14.035 32.7862 14.0851C31.9875 14.1641 31.311 14.1601 30.5544 14.4351C28.2263 15.2811 27.1777 17.2437 28.0836 19.122C28.2659 19.4997 28.5126 19.8314 28.8527 20.1365C29.2675 20.5085 29.4175 20.4353 29.0603 20.8631C28.5261 21.5028 28.0757 22.185 27.7091 22.8933C26.7466 24.753 26.5856 26.8475 26.6483 28.8309C26.6702 29.5252 26.7069 30.2281 26.8418 30.9158C26.9 31.2134 26.9164 31.7731 27.1915 31.9939C27.331 32.1059 27.5299 32.1684 27.7282 32.1238C28.1945 32.019 28.0342 31.7397 28.045 31.4805C28.0995 30.1782 28.0259 29.0261 28.4075 27.7394C28.6894 26.7888 29.1592 25.9255 29.768 25.0755C30.5422 23.9943 31.3779 23.0449 32.4426 22.1191C32.6929 21.9014 32.7476 21.8092 33.0832 21.7934C33.3374 21.7815 33.7092 21.9227 33.9563 21.9716C34.5012 22.0794 35.047 22.186 35.6018 22.2585C36.6218 22.392 37.6318 22.401 38.6609 22.3748C40.6863 22.3234 42.7204 22.2081 44.6841 21.7941C45.9883 21.5192 47.1445 21.0258 48.3937 20.6641C48.416 20.6577 48.7291 20.4766 48.7839 20.484C48.8606 20.4943 49.3231 20.8882 49.4012 20.9378C50.0082 21.3241 50.674 21.4863 51.3295 21.7855C52.1377 22.1544 51.355 21.6265 51.8008 22.0862C51.9307 22.2201 51.9972 22.4684 52.1014 22.62C52.4331 23.1032 52.8944 23.5278 53.4462 23.8648C53.9795 24.1903 54.7808 24.3476 55.0527 24.7713C55.2623 25.0982 55.333 25.5425 55.5022 25.8915C55.946 26.8068 56.5322 27.6604 57.1183 28.5225C57.5905 29.2173 58.107 29.8242 58.1595 30.6182C58.1777 30.8945 57.8537 32.5522 58.643 32.0481C58.76 31.9734 59.0122 31.1281 59.064 30.9847C59.2743 30.402 59.3491 29.7936 59.4444 29.1949C59.6338 28.0041 59.696 26.8711 59.5723 25.6718Z" fill="white"/>
</mask>
<g mask="url(#mask7)">
<path fill-rule="evenodd" clip-rule="evenodd" d="M31.9716 23.0371C32.0062 23.0269 31.9204 23.023 31.7143 23.0254C31.9648 23.0251 32.0506 23.029 31.9716 23.0371ZM29.6858 20.1003C29.6852 20.0966 29.6905 20.1285 29.6858 20.1003V20.1003ZM59.934 26.5386C59.8598 25.919 59.7283 25.3031 59.5073 24.6977C59.3319 24.2165 59.0921 23.7573 58.8086 23.2983C58.6374 23.0209 58.2375 22.6399 58.1905 22.3407C58.1442 22.046 58.4901 21.7195 58.5639 21.3764C58.6356 21.0424 58.6234 20.6913 58.5203 20.3604C58.2863 19.6089 57.5105 18.91 56.3126 18.7141C56.0451 18.6704 55.4798 18.7243 55.2908 18.6207C55.0741 18.502 54.9233 18.0975 54.7271 17.9352C54.1678 17.4727 53.2955 17.1748 52.3755 17.2787C51.6981 17.3551 52.0871 17.4482 51.5792 17.1832C51.2968 17.0358 51.0858 16.8108 50.8116 16.6513C50.3993 16.4116 49.9263 16.2065 49.437 16.0381C48.1566 15.5976 46.6962 15.2774 45.266 15.1213C42.6569 14.8366 39.8723 15.0848 37.3433 15.5359C36.0849 15.7604 34.818 16.0453 33.6492 16.422C33.148 16.5835 32.8587 16.7175 32.3362 16.7598C31.5133 16.8264 30.8163 16.8231 30.0368 17.0551C27.6381 17.7691 26.5577 19.4256 27.4911 21.0107C27.6789 21.3295 27.9331 21.6095 28.2835 21.867C28.7109 22.181 28.8654 22.1192 28.4974 22.4802C27.947 23.0201 27.483 23.5958 27.1052 24.1936C26.1136 25.7632 25.9477 27.5309 26.0123 29.2048C26.0349 29.7908 26.0727 30.384 26.2116 30.9643C26.2717 31.2156 26.2885 31.6879 26.5719 31.8743C26.7157 31.9688 26.9206 32.0215 27.125 31.9839C27.6053 31.8954 27.4402 31.6598 27.4513 31.441C27.5075 30.3419 27.4317 29.3695 27.8248 28.2836C28.1153 27.4813 28.5993 26.7527 29.2266 26.0353C30.0242 25.1229 30.8852 24.3216 31.9822 23.5403C32.2401 23.3565 32.2964 23.2786 32.6422 23.2653C32.9041 23.2553 33.2872 23.3745 33.5418 23.4158C34.1031 23.5067 34.6656 23.5967 35.2371 23.6579C36.288 23.7705 37.3286 23.7781 38.389 23.756C40.4757 23.7126 42.5714 23.6153 44.5946 23.2659C45.9383 23.034 47.1296 22.6175 48.4166 22.3123C48.4396 22.3068 48.7622 22.154 48.8187 22.1603C48.8977 22.1689 49.3742 22.5013 49.4547 22.5432C50.08 22.8693 50.766 23.0062 51.4414 23.2587C52.2741 23.57 51.4677 23.1245 51.927 23.5125C52.0608 23.6255 52.1294 23.835 52.2368 23.963C52.5784 24.3708 53.0538 24.7291 53.6223 25.0135C54.1717 25.2883 54.9973 25.421 55.2774 25.7786C55.4934 26.0545 55.5662 26.4295 55.7405 26.724C56.1978 27.4965 56.8017 28.2169 57.4056 28.9445C57.8921 29.5309 58.4243 30.0431 58.4784 30.7132C58.4972 30.9464 58.1634 32.3455 58.9765 31.92C59.097 31.8569 59.3569 31.1436 59.4103 31.0226C59.627 30.5307 59.7041 30.0173 59.8022 29.512C59.9973 28.507 60.0614 27.5508 59.934 26.5386Z" fill="#28354B"/>
<path d="M78.7273 5H6.72726V81H78.7273V5Z" fill="#331B0C"/>
</g>
</g>
<path d="M31.1979 58.569C27.134 60.3494 19.6979 60.6789 16.8688 64.4078C16.4168 65.0032 15.3397 71.7401 14.1156 76.4698C22.2732 81.212 32.2399 84 43 84C53.7594 84 63.725 81.2127 71.8817 76.4711C70.6367 71.7495 69.4469 65.0601 69.1313 64.4076C67.2531 60.5226 58.5569 60.3605 54.4883 58.569C48.1627 77.3883 38.735 78.671 31.1979 58.8464L31.1961 58.8449L31.1979 58.569Z" fill="#60D6B9"/>
<path d="M33.9068 56.9742C33.6426 62.8292 34.8559 71.1236 42.8682 73.2439C35.3256 73.5021 30.4309 64.5906 24.8559 62.2567L33.9074 56.975L33.9068 56.9742Z" fill="white"/>
<path d="M52.2789 56.9742C52.5559 62.8292 51.2812 71.1236 42.8682 73.2439C50.7887 73.5021 55.9287 64.5906 61.7826 62.2567L52.2789 56.975V56.9742Z" fill="white"/>
<path d="M29.9422 11H56.0578C57.672 11 59.1166 11.9131 58.9926 13.0211L58.5 22C55.1882 19.5375 31.3015 19.8293 28 22.5L27.0076 13.0211C26.8823 11.9123 28.3279 11 29.9422 11Z" fill="white"/>
<path d="M43.5 20C45.9853 20 48 18.2091 48 16C48 13.7909 45.9853 12 43.5 12C41.0147 12 39 13.7909 39 16C39 18.2091 41.0147 20 43.5 20Z" fill="#60D6B9"/>
<path d="M42.5497 13H44.4505V15.1854H47V16.8146H44.4505V19H42.5497V16.8148H40V15.1855H42.5497V13Z" fill="white"/>
</g>
<mask id="mask8" mask-type="alpha" maskUnits="userSpaceOnUse" x="2" y="2" width="82" height="82">
<circle cx="43" cy="43" r="41" fill="#C4C4C4"/>
</mask>
<g mask="url(#mask8)">
</g>
<circle cx="43" cy="43" r="41" stroke="#DEDEDE" stroke-width="3"/>
</svg>
