<svg width="191" height="204" viewBox="0 0 191 204" fill="none" xmlns="http://www.w3.org/2000/svg">
<g id="Face Template">
<rect width="191" height="204" fill="white"/>
<g id="HairBG">
{{#Hair5}}<path id="Hair5BG" fill-rule="evenodd" clip-rule="evenodd" d="M54 95C54 96.4665 53.6054 97.8409 52.9166 99.0227C55.3537 100.394 57 103.005 57 106C57 108.591 55.7681 110.895 53.858 112.357C55.6994 113.094 57 114.895 57 117C57 119.761 54.7614 122 52 122C49.2386 122 47 119.761 47 117C47 115.849 47.389 114.788 48.0428 113.943C44.0758 113.47 41 110.094 41 106C41 104.533 41.3946 103.159 42.0834 101.977C39.6463 100.606 38 97.9954 38 95C38 90.5817 41.5817 87 46 87C50.4183 87 54 90.5817 54 95ZM137 125C139.761 125 142 122.761 142 120C142 119.64 141.962 119.289 141.89 118.951C145.889 118.508 149 115.118 149 111C149 106.582 145.418 103 141 103C136.582 103 133 106.582 133 111C133 112.742 133.557 114.354 134.502 115.668C133.006 116.532 132 118.148 132 120C132 122.761 134.239 125 137 125ZM144 103C148.418 103 152 99.4183 152 95C152 90.5817 148.418 87 144 87C139.582 87 136 90.5817 136 95C136 99.4183 139.582 103 144 103Z" fill="#DFBCBC"/>{{/Hair5}}
{{#Hair10}}<path id="Hair10BG" d="M138.5 162.5H57L50 112L143 107L138.5 162.5Z" fill="#BB794E"/>{{/Hair10}}
{{#Hair9}}<path id="Hair9BG" d="M44.5 136C40.9999 126 41 108 41 108L97.5 102.5L149.5 91C149.5 91 149.5 113.5 147.5 126C145.5 138.5 140.245 143.191 134 144C127.563 144.834 118 139.5 118 139.5H74C74 139.5 65.3837 146.08 59 146C52.795 145.922 48.0001 146 44.5 136Z" fill="#D5D5D5"/>{{/Hair9}}
{{#Hair8}}<path id="Hair8BG" d="M135 175L52.5 171L49 113.5L142.5 111L135 175Z" fill="#3F291B"/>{{/Hair8}}
</g>
<g id="Base">
{{#Base1}}<path id="Base1" fill-rule="evenodd" clip-rule="evenodd" d="M52.0451 91.012C53.0839 68.1866 71.9181 50 95 50C118.084 50 136.919 68.1894 137.955 91.0172C138.135 91.0058 138.317 91 138.5 91C143.194 91 147 94.8056 147 99.5C147 104.194 143.194 108 138.5 108C138.332 108 138.165 107.995 138 107.986V111C138 134.748 118.748 154 95 154C71.2518 154 52 134.748 52 111V107.986C47.5383 107.727 44 104.027 44 99.5C44 94.9582 47.5622 91.2483 52.0451 91.012Z" fill="url(#paint0_linear)"/>{{/Base1}}
{{#Base2}}<path id="Base2" fill-rule="evenodd" clip-rule="evenodd" d="M52.0451 91.012C53.0839 68.1866 71.9181 50 95 50C118.084 50 136.919 68.1894 137.955 91.0172C138.135 91.0058 138.317 91 138.5 91C143.194 91 147 94.8056 147 99.5C147 104.194 143.194 108 138.5 108C138.332 108 138.165 107.995 138 107.986V111C138 130 114 154 95 154C76 154 52 131 52 111V107.986C47.5383 107.727 44 104.027 44 99.5C44 94.9582 47.5622 91.2483 52.0451 91.012Z" fill="url(#paint1_linear)"/>{{/Base2}}
{{#Base3}}<path id="Base3" fill-rule="evenodd" clip-rule="evenodd" d="M52.0451 91.012C53.0839 68.1866 71.9181 50 95 50C118.084 50 136.919 68.1894 137.955 91.0172C138.135 91.0058 138.317 91 138.5 91C143.194 91 147 94.8056 147 99.5C147 104.194 143.194 108 138.5 108C138.3 108 138.101 107.993 137.904 107.979C137.716 111.113 137.222 114.216 136.16 117.171C130.043 134.204 116.075 148.819 100.813 152.953C97.0179 153.981 92.9905 153.892 89.2219 152.771C73.7594 148.172 59.391 133.495 53.6124 116.724C52.6432 113.911 52.2197 110.962 52.0694 107.989C47.575 107.765 44 104.05 44 99.5C44 94.9582 47.5622 91.2483 52.0451 91.012Z" fill="url(#paint2_linear)"/>{{/Base3}}
{{#Base4}}<path id="Base4" fill-rule="evenodd" clip-rule="evenodd" d="M52.0451 91.012C53.0839 68.1866 71.9181 50 95 50C118.084 50 136.919 68.1894 137.955 91.0172C138.135 91.0058 138.317 91 138.5 91C143.194 91 147 94.8056 147 99.5C147 104.194 143.194 108 138.5 108C138.293 108 138.087 107.993 137.884 107.978C137.662 111.201 137.075 114.376 135.733 117.318C128.012 134.239 106.854 154.648 95 154C81.6175 153.269 54.0651 128.845 52 111V107.986C47.5383 107.727 44 104.027 44 99.5C44 94.9582 47.5622 91.2483 52.0451 91.012Z" fill="url(#paint3_linear)"/>{{/Base4}}
</g>
<g id="Eyes">
{{#Eyes1}}<path id="Eyes1" fill-rule="evenodd" clip-rule="evenodd" d="M71 93C69.8954 93 69 93.8954 69 95C69 96.1046 69.8954 97 71 97H76C77.1046 97 78 96.1046 78 95C78 93.8954 77.1046 93 76 93H71ZM115 93C113.895 93 113 93.8954 113 95C113 96.1046 113.895 97 115 97H120C121.105 97 122 96.1046 122 95C122 93.8954 121.105 93 120 93H115Z" fill="black"/>{{/Eyes1}}
{{#Eyes2}}<path id="Eyes2" fill-rule="evenodd" clip-rule="evenodd" d="M74 102C76.7614 102 79 99.7614 79 97C79 94.2386 76.7614 92 74 92C71.2386 92 69 94.2386 69 97C69 99.7614 71.2386 102 74 102ZM118 102C120.761 102 123 99.7614 123 97C123 94.2386 120.761 92 118 92C115.239 92 113 94.2386 113 97C113 99.7614 115.239 102 118 102Z" fill="black"/>{{/Eyes2}}
</g>
<g id="Noses">
{{#Nose1}}<line id="Nose1" x1="93" y1="115" x2="98" y2="115" stroke="black" stroke-opacity="0.3" stroke-width="2" stroke-linecap="round"/>{{/Nose1}}
{{#Nose2}}<path id="Nose2" d="M92 115L95.5 116.5L99 115" stroke="black" stroke-opacity="0.3" stroke-width="2" stroke-linecap="round"/>{{/Nose2}}
{{#Nose3}}<path id="Nose3" d="M93 116C93 116 94.4485 117 95.5 117C96.5515 117 98 116 98 116" stroke="black" stroke-opacity="0.3" stroke-width="2" stroke-linecap="round"/>{{/Nose3}}
</g>
<g id="Eyebrows">
{{#Eyebrows1}}<path id="Eyebrow1" fill-rule="evenodd" clip-rule="evenodd" d="M75.8855 83.0089C76.4329 82.9359 76.9359 83.3205 77.0089 83.868C77.0819 84.4154 76.6973 84.9184 76.1498 84.9913L63.1323 86.727C62.5848 86.8 62.0819 86.4154 62.0089 85.868C61.9359 85.3205 62.3205 84.8176 62.868 84.7446L75.8855 83.0089ZM112.397 83.0089C111.849 82.9359 111.346 83.3205 111.273 83.868C111.2 84.4154 111.585 84.9184 112.132 84.9913L125.15 86.727C125.697 86.8 126.2 86.4154 126.273 85.868C126.346 85.3205 125.962 84.8176 125.414 84.7446L112.397 83.0089Z" fill="black"/>{{/Eyebrows1}}
{{#Eyebrows2}}<path id="Eyebrow2" fill-rule="evenodd" clip-rule="evenodd" d="M74.771 83.0178C75.8659 82.8718 76.8718 83.641 77.0178 84.7359C77.1638 85.8308 76.3945 86.8367 75.2996 86.9827L64.2646 88.454C63.1697 88.6 62.1638 87.8308 62.0178 86.7359C61.8718 85.641 62.641 84.6351 63.7359 84.4891L74.771 83.0178ZM113.793 83.0178C112.698 82.8718 111.692 83.641 111.546 84.7359C111.4 85.8308 112.17 86.8367 113.265 86.9827L124.3 88.454C125.395 88.6 126.4 87.8308 126.546 86.7359C126.692 85.641 125.923 84.6351 124.828 84.4891L113.793 83.0178Z" fill="#4F2F18"/>{{/Eyebrows2}}
{{#Eyebrows3}}<path id="Eyebrow3" fill-rule="evenodd" clip-rule="evenodd" d="M113.61 83.062C113.092 82.871 112.517 83.1363 112.326 83.6545C112.135 84.1727 112.4 84.7476 112.919 84.9386C115.677 85.9551 117.811 86.5187 119.89 86.7668C121.967 87.0146 123.944 86.9419 126.368 86.7322C126.918 86.6846 127.326 86.2 127.278 85.6498C127.231 85.0995 126.746 84.6921 126.196 84.7397C123.82 84.9451 122.002 85.0046 120.127 84.7809C118.254 84.5574 116.279 84.0456 113.61 83.062ZM63.885 86.7293C63.3364 86.6657 62.9432 86.1695 63.0067 85.6209C63.0703 85.0722 63.5666 84.679 64.1152 84.7426C66.7539 85.0483 68.7142 85.084 70.5823 84.8264C72.4516 84.5687 74.2792 84.0106 76.649 83.0707C77.1624 82.8671 77.7436 83.1182 77.9472 83.6316C78.1508 84.145 77.8997 84.7262 77.3863 84.9298C74.9447 85.8982 72.9493 86.519 70.8555 86.8077C68.7605 87.0965 66.6177 87.0459 63.885 86.7293Z" fill="#3F291B"/>{{/Eyebrows3}}
</g>
<g id="Mouths">
{{#Mouth1}}<path id="Mouth1" d="M83 136C83 136 85.3413 130 95.6838 130C106.026 130 108 136 108 136" stroke="black" stroke-opacity="0.5" stroke-width="3" stroke-linecap="round"/>{{/Mouth1}}
{{#Mouth2}}<path id="Mouth2" d="M87 133C87 133 88.7794 130 96.6397 130C104.5 130 106 133 106 133" stroke="black" stroke-opacity="0.5" stroke-width="3" stroke-linecap="round"/>{{/Mouth2}}
{{#Mouth3}}<path id="Mouth3" d="M90.4721 134.904C90.4721 134.904 91.1018 131.608 95.9687 130.874C100.836 130.14 102.237 133.13 102.237 133.13" stroke="#D28585" stroke-opacity="0.5" stroke-width="3" stroke-linecap="round"/>{{/Mouth3}}
{{#Mouth4}}<path id="Mouth4" d="M93 133C93 133 93.6556 131 96.5515 131C99.4474 131 100 133 100 133" stroke="#9C1A1A" stroke-opacity="0.5" stroke-width="3" stroke-linecap="round"/>{{/Mouth4}}
</g>
<g id="Accessories">
{{#Eyebags}}<path id="Eyebags" fill-rule="evenodd" clip-rule="evenodd" d="M69.7919 105.082L69.7916 105.082L69.3959 106C68.9997 106.918 68.9999 106.918 69 106.919L69.0003 106.919L69.0011 106.919L69.0033 106.92L69.0103 106.923L69.0341 106.933C69.0543 106.942 69.0829 106.953 69.1193 106.968C69.192 106.998 69.2959 107.04 69.4251 107.09C69.683 107.189 70.0448 107.321 70.4632 107.454C71.2751 107.711 72.3954 108 73.3959 108C74.3964 108 75.5167 107.711 76.3286 107.454C76.747 107.321 77.1089 107.189 77.3667 107.09C77.496 107.04 77.5999 106.998 77.6726 106.968C77.709 106.953 77.7376 106.942 77.7577 106.933L77.7815 106.923L77.7885 106.92L77.7907 106.919L77.7915 106.919L77.7918 106.919C77.792 106.918 77.7921 106.918 77.3959 106L77.7921 106.918C78.2992 106.7 78.5329 106.111 78.3141 105.604C78.0953 105.097 77.507 104.863 77 105.082L76.9997 105.082L76.9969 105.083L76.9812 105.09C76.9666 105.096 76.9438 105.106 76.9135 105.118C76.8529 105.143 76.7626 105.179 76.6483 105.223C76.419 105.311 76.0963 105.429 75.725 105.547C74.9576 105.79 74.0779 106 73.3959 106C72.714 106 71.8343 105.79 71.0668 105.547C70.6955 105.429 70.3728 105.311 70.1436 105.223C70.0292 105.179 69.9389 105.143 69.8783 105.118C69.848 105.106 69.8252 105.096 69.8106 105.09L69.7949 105.083L69.7921 105.082L69.3959 106C69.7921 105.082 69.792 105.082 69.7919 105.082ZM113.792 105.082L113.792 105.082L113.396 106C113 106.918 113 106.918 113 106.919L113 106.919L113.001 106.919L113.003 106.92L113.01 106.923L113.034 106.933C113.054 106.942 113.083 106.953 113.119 106.968C113.192 106.998 113.296 107.04 113.425 107.09C113.683 107.189 114.045 107.321 114.463 107.454C115.275 107.711 116.395 108 117.396 108C118.396 108 119.517 107.711 120.329 107.454C120.747 107.321 121.109 107.189 121.367 107.09C121.496 107.04 121.6 106.998 121.673 106.968C121.709 106.953 121.738 106.942 121.758 106.933L121.782 106.923L121.788 106.92L121.791 106.919L121.792 106.919L121.792 106.919C121.792 106.918 121.792 106.918 121.396 106L121.792 106.918C122.299 106.7 122.533 106.111 122.314 105.604C122.095 105.097 121.507 104.863 121 105.082L121 105.082L120.997 105.083L120.981 105.09C120.967 105.096 120.944 105.106 120.914 105.118C120.853 105.143 120.763 105.179 120.648 105.223C120.419 105.311 120.096 105.429 119.725 105.547C118.958 105.79 118.078 106 117.396 106C116.714 106 115.834 105.79 115.067 105.547C114.696 105.429 114.373 105.311 114.144 105.223C114.029 105.179 113.939 105.143 113.878 105.118C113.848 105.106 113.825 105.096 113.811 105.09L113.795 105.083L113.792 105.082L113.396 106C113.792 105.082 113.792 105.082 113.792 105.082Z" fill="black" fill-opacity="0.3"/>{{/Eyebags}}
{{#NoseRing}}<g id="NoseRing">
<mask id="mask0" mask-type="alpha" maskUnits="userSpaceOnUse" x="96" y="113" width="6" height="6">
<path id="Union" fill-rule="evenodd" clip-rule="evenodd" d="M96 113H99H102V115V117V119H99H96V117H99V115H96V113Z" fill="#C4C4C4"/>
</mask>
<g mask="url(#mask0)">
<path id="Ellipse 3" d="M101.5 116C101.5 117.105 100.605 118 99.5 118C98.3954 118 97.5 117.105 97.5 116C97.5 114.895 98.3954 114 99.5 114C100.605 114 101.5 114.895 101.5 116Z" stroke="#EFAD00"/>
</g>
</g>{{/NoseRing}}
{{#Bandaids}}
<g id="Bandaids">
<g id="Group 4.2">
<line id="Line" x1="117.243" y1="115" x2="126" y2="123.757" stroke="#DACA92" stroke-width="6" stroke-linecap="round"/>
<line id="Line_2" x1="119.121" y1="116.879" x2="124.121" y2="121.879" stroke="#E4DFCA" stroke-width="6"/>
</g>
<g id="Group 4.3">
<line id="Line_3" x1="113.243" y1="122" x2="122" y2="130.757" stroke="#DACA92" stroke-width="6" stroke-linecap="round"/>
<line id="Line_4" x1="115.121" y1="123.879" x2="120.121" y2="128.879" stroke="#E4DFCA" stroke-width="6"/>
</g>
</g>
{{/Bandaids}}
{{#Mustache}}
<g id="Mustache">
<path id="Vector 3.2" d="M97 126L96.5 122L107 124L112.5 130.5L107 128L97 126Z" fill="#DFBCBC"/>
<path id="Vector 3.3" d="M93.5 126L94 122L83.5 124L78 130.5L83.5 128L93.5 126Z" fill="#DFBCBC"/>
</g>
{{/Mustache}}
{{#Hoops}}
<g id="Hoops">
<path id="Ellipse 2.2" d="M50.5 111C50.5 112.607 50.2276 114.039 49.8062 115.05C49.5951 115.557 49.3564 115.934 49.1169 116.178C48.8792 116.419 48.671 116.5 48.5 116.5C48.329 116.5 48.1208 116.419 47.8831 116.178C47.6436 115.934 47.4049 115.557 47.1938 115.05C46.7724 114.039 46.5 112.607 46.5 111C46.5 109.393 46.7724 107.961 47.1938 106.95C47.4049 106.443 47.6436 106.066 47.8831 105.822C48.1208 105.581 48.329 105.5 48.5 105.5C48.671 105.5 48.8792 105.581 49.1169 105.822C49.3564 106.066 49.5951 106.443 49.8062 106.95C50.2276 107.961 50.5 109.393 50.5 111Z" stroke="#C4C4C4"/>
<path id="Ellipse 2.3" d="M143.5 111C143.5 112.607 143.228 114.039 142.806 115.05C142.595 115.557 142.356 115.934 142.117 116.178C141.879 116.419 141.671 116.5 141.5 116.5C141.329 116.5 141.121 116.419 140.883 116.178C140.644 115.934 140.405 115.557 140.194 115.05C139.772 114.039 139.5 112.607 139.5 111C139.5 109.393 139.772 107.961 140.194 106.95C140.405 106.443 140.644 106.066 140.883 105.822C141.121 105.581 141.329 105.5 141.5 105.5C141.671 105.5 141.879 105.581 142.117 105.822C142.356 106.066 142.595 106.443 142.806 106.95C143.228 107.961 143.5 109.393 143.5 111Z" stroke="#C4C4C4"/>
</g>
{{/Hoops}}
{{#Stud}}<circle id="Stud" cx="141" cy="107" r="2" fill="#EFAD00"/>{{/Stud}}
{{#Goatee}}<path id="Goatee" d="M93.5 146.5L92 140H99L97.5 146.5H93.5Z" fill="#4F2F18"/>{{/Goatee}}
{{#Glasses}}<path id="Glasses" fill-rule="evenodd" clip-rule="evenodd" d="M81.2122 90.0985C75.3465 88.3008 70.7407 89.0038 66.3319 90.1185C65.6614 90.2881 64.6424 90.7941 63.6101 91.5015C62.5787 92.2083 61.7336 92.9795 61.3256 93.5505C59.1254 96.6301 59.8007 100.343 62.4342 103.815C63.0956 104.687 63.6457 105.276 64.2396 105.738C64.8285 106.196 65.5181 106.574 66.5035 106.953C70.0875 108.334 76.1644 108.377 81.2353 106.912C83.5209 106.252 85.108 105.194 85.8428 103.956C86.8759 102.215 87.6549 100.023 87.912 97.9204C88.1727 95.7888 87.8742 93.9722 87.0369 92.7724C86.9373 92.6298 86.6952 92.3973 86.2346 92.1081C85.7935 91.8312 85.2437 91.5587 84.6351 91.2994C83.417 90.7804 82.0989 90.3703 81.2122 90.0985ZM65.5966 87.2101C70.26 86.031 75.4826 85.2048 82.0912 87.2302C82.9747 87.5009 84.4309 87.9514 85.8111 88.5395C86.5017 88.8338 87.2071 89.1765 87.8297 89.5673C88.4329 89.946 89.0632 90.434 89.4969 91.0554C89.9436 91.6954 90.277 92.3963 90.5149 93.134C92.6228 92.5175 94.432 92.2246 96.2635 92.2435C97.9542 92.261 99.6248 92.5441 101.522 93.0408C101.758 92.3373 102.082 91.6684 102.509 91.0554C102.943 90.434 103.573 89.946 104.177 89.5673C104.799 89.1765 105.505 88.8338 106.195 88.5395C107.575 87.9514 109.032 87.5009 109.915 87.2302C116.524 85.2048 121.746 86.031 126.41 87.2101C127.573 87.5042 128.93 88.2305 130.092 89.0268C131.255 89.8238 132.423 90.8279 133.122 91.8066C136.393 96.3854 135.016 101.603 131.962 105.628C131.213 106.616 130.483 107.425 129.609 108.106C128.729 108.79 127.762 109.298 126.581 109.753C122.227 111.43 115.452 111.387 109.938 109.794C107.303 109.033 104.872 107.659 103.583 105.487C102.348 103.405 101.426 100.818 101.117 98.2846C100.984 97.1988 100.959 96.0807 101.09 94.9953C99.2581 94.5117 97.7401 94.2589 96.2428 94.2434C94.6175 94.2266 92.9688 94.4893 90.928 95.0974C91.0457 96.1507 91.0185 97.2328 90.8898 98.2846C90.58 100.818 89.6579 103.405 88.4229 105.487C87.1343 107.659 84.7036 109.033 82.0681 109.794C76.5546 111.387 69.7792 111.43 65.425 109.753C64.2445 109.298 63.277 108.79 62.3975 108.106C61.523 107.425 60.7935 106.616 60.0441 105.628C56.9908 101.603 55.6133 96.3854 58.8846 91.8066C59.5838 90.8279 60.7512 89.8238 61.9142 89.0268C63.0761 88.2305 64.4331 87.5042 65.5966 87.2101ZM110.794 90.0985C116.66 88.3008 121.266 89.0038 125.674 90.1185C126.345 90.2881 127.364 90.7941 128.396 91.5015C129.428 92.2083 130.273 92.9795 130.681 93.5505C132.881 96.6301 132.206 100.343 129.572 103.815C128.911 104.687 128.361 105.276 127.767 105.738C127.178 106.196 126.488 106.574 125.503 106.953C121.919 108.334 115.842 108.377 110.771 106.912C108.485 106.252 106.898 105.194 106.164 103.956C105.13 102.215 104.351 100.023 104.094 97.9204C103.834 95.7888 104.132 93.9722 104.969 92.7724C105.069 92.6298 105.311 92.3973 105.772 92.1081C106.213 91.8312 106.763 91.5587 107.371 91.2994C108.589 90.7804 109.907 90.3703 110.794 90.0985Z" fill="#E7E7E7"/>{{/Glasses}}
{{#Facemask}}<path id="Facemask" fill-rule="evenodd" clip-rule="evenodd" d="M133.864 117.157C134.053 117.358 134.044 117.674 133.843 117.864C128.006 123.365 123.997 125.946 116.958 128.751C116.702 135.881 116.19 140.373 114.576 146.795C115.948 146.009 117.279 144.926 118.58 143.636C120.411 141.819 122.159 139.616 123.859 137.307C124.709 136.153 125.543 134.976 126.369 133.81L126.464 133.676C127.257 132.556 128.042 131.448 128.82 130.387C130.436 128.184 132.04 126.16 133.657 124.636C133.858 124.447 134.174 124.456 134.364 124.657C134.553 124.858 134.544 125.174 134.343 125.364C132.796 126.822 131.236 128.783 129.627 130.978C128.854 132.032 128.073 133.134 127.28 134.254L127.279 134.256L127.279 134.256L127.185 134.388C126.36 135.553 125.52 136.737 124.665 137.899C122.955 140.223 121.17 142.475 119.284 144.346C117.697 145.919 116.022 147.24 114.239 148.104C114.162 148.398 114.082 148.697 114 149C98.749 151.321 91.406 152.253 77 149C76.8863 148.734 76.774 148.471 76.6631 148.21C74.7773 147.345 72.932 145.954 71.1434 144.277C69.1019 142.363 67.1083 140.052 65.1882 137.667C64.0455 136.247 62.9179 134.787 61.8208 133.367L61.8206 133.367C61.0804 132.408 60.354 131.468 59.6462 130.57C57.877 128.326 56.2097 126.327 54.657 124.864C54.456 124.674 54.4467 124.358 54.6361 124.157C54.8255 123.956 55.1419 123.947 55.3429 124.136C56.9538 125.655 58.6603 127.704 60.4315 129.951C61.1536 130.867 61.8841 131.813 62.6251 132.772C63.7145 134.183 64.8265 135.623 65.9671 137.04C67.8771 139.412 69.8365 141.681 71.8274 143.548C73.2373 144.87 74.6501 145.977 76.0587 146.777C73.5977 140.879 71.9053 135.972 71.1585 129.146C64.4056 126.232 60.5258 123.904 54.1898 118.892C53.9732 118.721 53.9366 118.406 54.1079 118.19C54.2792 117.973 54.5936 117.937 54.8102 118.108C60.9166 122.938 64.6861 125.23 71.0443 128.006C71.029 127.839 71.0142 127.67 71 127.5C89.1277 128.318 99.2059 128.35 117 127.5L116.995 127.659C123.669 124.961 127.531 122.439 133.157 117.136C133.358 116.947 133.674 116.956 133.864 117.157Z" fill="#C4C4C4"/>{{/Facemask}}
</g>
<g id="Hair">
{{#Hair1}}
<path id="Hair1" d="M49.5083 40.7482L51.2899 94.1978C51.3279 95.3357 52.9341 95.5358 53.2501 94.442L57.9234 78.2651C57.9735 78.0916 58.0672 77.9372 58.2012 77.8161C59.4045 76.7281 65.8234 71.0947 72.5 68.5C80.9312 65.2234 89.4546 62.9526 98.5 63C107.356 63.0464 113.021 63.758 120.5 68.5C126.814 72.5032 133.077 82.4949 133.907 83.8475C133.971 83.9512 134.011 84.0613 134.032 84.181L135.079 90.0422C135.286 91.2024 136.979 91.1115 137.061 89.9358L140.489 40.651C140.496 40.5509 140.488 40.4503 140.465 40.3526L138.631 32.5553C138.55 32.2111 138.293 31.9353 137.956 31.8298L130.59 29.5282C130.53 29.5094 130.469 29.4964 130.406 29.4892L100.186 26.0214C100.063 26.0072 99.941 26.0154 99.8212 26.0465C98.0024 26.5185 82.7085 30.4538 72.5 32C65.3151 33.0882 59.4683 29.2142 54 34C51.9852 35.7634 50.0805 39.3569 49.6103 40.28C49.5363 40.4253 49.5028 40.5852 49.5083 40.7482Z" fill="black" stroke="black"/>
{{/Hair1}}
{{#Hair2}}
<path id="Hair2" fill-rule="evenodd" clip-rule="evenodd" d="M104.288 48.0203C107.254 45.2798 109.112 41.3568 109.112 37C109.112 28.7157 102.396 22 94.1116 22C85.8273 22 79.1116 28.7157 79.1116 37C79.1116 41.1187 80.7715 44.8496 83.4589 47.5604C81.1046 48.1432 78.6743 48.9513 76.1115 50C69.3449 52.769 65.625 55.1783 60.6115 60.5C56.0415 65.3511 53.8618 68.7267 51.6115 75C47.9856 85.1088 51.6115 102.5 51.6115 102.5C51.6115 102.5 53.2321 90.6775 56.6115 84C60.8585 75.6084 64.522 70.7973 72.6115 66C80.2288 61.4828 85.758 60.2929 94.6115 60.5C102.71 60.6894 107.603 61.9387 114.612 66C122.862 70.7811 126.891 75.4488 131.112 84C134.402 90.6675 135.612 102.5 135.612 102.5C135.612 102.5 140.449 86.2804 137.612 76.5C135.587 69.5209 133.178 65.7096 128.112 60.5C122.555 54.7863 118.122 52.6667 110.612 50C108.414 49.2198 106.317 48.5568 104.288 48.0203Z" fill="#EFAD00"/>
{{/Hair2}}
{{#Hair3}}
<path id="Hair3" d="M52.2198 82.943C51.7253 87.7995 52.2198 95.443 52.2198 95.443C52.2198 95.443 53.18 85.4163 55.7198 79.443C57.3602 75.5848 61.7198 69.943 61.7198 69.943C61.7198 69.943 65.5486 64.8916 68.7198 62.443C71.557 60.2523 73.4448 59.4002 76.7198 57.943C80.1047 56.4369 82.0702 55.5803 85.7198 54.943C89.9515 54.2041 96.7198 53.943 96.7198 53.943C96.7198 53.943 102.25 54.2591 105.72 54.943C109.72 55.7315 112.009 56.2545 115.72 57.943C118.829 59.3575 120.629 60.217 123.22 62.443C126.065 64.8875 127.215 66.7727 129.22 69.943C131.414 73.4128 132.298 75.592 133.72 79.443C135.935 85.4431 137.22 95.443 137.22 95.443C137.22 95.443 138.563 85.5454 137.22 79.443C136.37 75.5816 135.498 73.4741 133.72 69.943C131.82 66.1704 130.437 64.1775 127.72 60.943C125.588 58.4057 124.352 56.9555 121.72 54.943C118.389 52.3968 116.053 51.6403 112.22 49.943C108.605 48.3424 106.607 47.166 102.72 46.443C98.4965 45.6575 96.0006 46.0846 91.7198 46.443L91.5974 46.4533C87.1298 46.8272 84.5157 47.0461 80.2198 48.443C76.3159 49.7125 74.1652 50.7112 70.7198 52.943C66.773 55.4996 64.8199 57.407 61.7198 60.943C58.1852 64.9747 56.101 67.4222 54.2198 72.443C52.7552 76.3519 52.6427 78.7903 52.2198 82.943Z" fill="#7ACE65"/>
{{/Hair3}}
{{#Hair4}}
<path id="Hair4" fill-rule="evenodd" clip-rule="evenodd" d="M102.474 40.85L113.112 39V44.0411C114.135 44.4169 115.1 44.7872 116.02 45.1644L126.112 44L123.532 49.1593C125.374 50.453 127.174 52.0081 129.112 54C134.178 59.2096 136.587 63.0209 138.612 70C141.449 79.7804 136.612 96 136.612 96C136.612 96 135.402 84.1675 132.112 77.5C129.596 72.4021 127.148 68.6843 123.832 65.5H121.612L120.294 62.5358C119.708 62.1046 119.097 61.6791 118.457 61.2565L115.112 62L112.234 57.6832C111.433 57.29 110.651 56.9357 109.878 56.6168L107.112 58L103.465 54.7176C101.102 54.2799 98.5706 54.0692 95.6115 54C86.758 53.7929 81.2288 54.9828 73.6115 59.5C73.0273 59.8465 72.4662 60.193 71.9262 60.541L68.1116 65.5L67.2685 64.0246C66.5618 64.6464 65.8973 65.2843 65.2663 65.9448L64.6116 69L63.6392 67.7846C61.4229 70.4907 59.5799 73.6108 57.6115 77.5C54.2321 84.1775 52.6115 96 52.6115 96C52.6115 96 48.9856 78.6088 52.6115 68.5C54.8618 62.2267 57.0415 58.8511 61.6115 54C66.625 48.6783 70.3449 46.269 77.1115 43.5C86.4111 39.6945 93.9668 39.0579 102.474 40.85Z" fill="#DF5C04"/>
{{/Hair4}}
{{#Hair5}}
<path id="Hair5_2" fill-rule="evenodd" clip-rule="evenodd" d="M95.8845 46.0771C95.923 46.0718 95.9616 46.0667 96.0002 46.0619L96 46C96 45.958 96.0003 45.9161 96.001 45.8743C95.9631 45.9425 95.9243 46.0101 95.8845 46.0771ZM122.279 65.8983C122.097 66.5681 122 67.2727 122 68C122 72.4183 125.582 76 130 76C130.505 76 130.999 75.9532 131.478 75.8637C131.171 76.5115 131 77.2357 131 78C131 79.877 132.034 81.5125 133.564 82.3675C132.601 83.2789 132 84.5693 132 86C132 88.7614 134.239 91 137 91C139.054 91 140.819 89.7611 141.588 87.9896C141.725 87.9965 141.862 88 142 88C146.418 88 150 84.4183 150 80C150 76.5685 147.839 73.6415 144.804 72.5053C146.165 71.0711 147 69.1331 147 67C147 62.5817 143.418 59 139 59C137.002 59 135.175 59.7325 133.773 60.9437C133.432 60.7609 133.075 60.6021 132.707 60.4695C134.703 59.0149 136 56.6589 136 54C136 49.5817 132.418 46 128 46C127.182 46 126.392 46.1228 125.649 46.351C125.877 45.6077 126 44.8182 126 44C126 39.5817 122.418 36 118 36C114.532 36 111.579 38.207 110.47 41.2932C109.015 39.2972 106.659 38 104 38C100.987 38 98.3635 39.6654 96.999 42.1257C96.9997 42.0839 97 42.042 97 42C97 37.5817 93.4183 34 89 34C85.2825 34 82.1573 36.5356 81.2594 39.9717C79.8532 38.7438 78.0135 38 76 38C73.9865 38 72.1468 38.7438 70.7406 39.9717C69.8427 36.5356 66.7175 34 63 34C58.5817 34 55 37.5817 55 42C55 43.4779 55.4007 44.8622 56.0995 46.0501C52.1051 46.4976 49 49.8862 49 54C49 55.9095 49.669 57.6627 50.7853 59.0381C50.527 59.0129 50.265 59 50 59C45.5817 59 42 62.5817 42 67C42 69.6589 43.2972 72.0149 45.2932 73.4695C42.207 74.579 40 77.5318 40 81C40 85.4183 43.5817 89 48 89C48.7941 89 49.5612 88.8843 50.2853 88.6688C50.9723 90.6097 52.8238 92 55 92C57.7614 92 60 89.7614 60 87C60 85.1954 59.044 83.6141 57.6107 82.7349C59.5819 82.0645 61 80.1979 61 78C61 77.0155 60.7155 76.0975 60.2242 75.3237C61.8027 74.6278 63.1137 73.4365 63.9602 71.9468C64.8697 73.1915 66.3404 74 68 74C70.7614 74 73 71.7614 73 69C73 68.1574 72.7916 67.3634 72.4234 66.6669C74.5792 65.2337 76 62.7828 76 60C76 59.7721 75.9905 59.5465 75.9718 59.3234C76.3655 58.8821 76.711 58.3969 77 57.876C78.3647 60.3354 80.988 62 84 62C86.6776 62 89.0479 60.6846 90.5 58.6647C91.9521 60.6846 94.3224 62 97 62C98.1767 62 99.294 61.746 100.3 61.2897C100.106 61.8233 100 62.3993 100 63C100 65.1476 101.354 66.979 103.255 67.6871C102.474 68.5692 102 69.7292 102 71C102 73.7614 104.239 76 107 76C109.761 76 112 73.7614 112 71C112 70.6572 111.965 70.3224 111.9 69.999C111.933 69.9997 111.967 70 112 70C114.761 70 117 67.7614 117 65C117 64.9764 117 64.9529 117 64.9295C118.176 65.6103 119.543 66 121 66C121.435 66 121.862 65.9652 122.279 65.8983Z" fill="#DFBCBC"/>
{{/Hair5}}
{{#Hair6}}
<path id="Hair6" fill-rule="evenodd" clip-rule="evenodd" d="M84.0182 51.3776C87.3728 54.8357 89.746 55.6523 94.465 55.9996C99.0006 55.814 102.088 54.3464 105.023 51.1223C101.534 50.0816 99.1158 50.005 94.5349 50C89.5589 50.0401 87.272 50.3507 84.0182 51.3776ZM65.5 71.4999L64.5 62.4999C59.6679 66.763 57.0028 70.7371 54.5 77.4999C52.489 82.5234 52.3205 85.4458 52.0408 90.2952C52.0275 90.5256 52.014 90.7603 52 90.9999L52.5 106.5L56.5 90.9999L60.5 80.9999L65.5 71.4999ZM125 71.4999L126 62.4999C130.832 66.763 133.497 70.7371 136 77.4999C138.011 82.5234 138.18 85.4458 138.459 90.2952L138.461 90.3188C138.473 90.5416 138.486 90.7685 138.5 90.9999L138 106.5L134 90.9999L130 80.9999L125 71.4999Z" fill="#4F2F18"/>
{{/Hair6}}
{{#Hair7}}
<path id="Hair7" d="M53.5 95.8943H51V82.8849C51 82.8849 52.1405 74.5404 53.5 69.3335C55.117 63.1406 55.4903 59.2467 59 53.8943C62.0285 49.2758 64.496 47.0904 69 43.8943C75.654 39.1725 80.4014 37.3853 88.5 36.3943C98.3466 35.1893 104.482 36.7621 113.5 40.8943C119.507 43.6465 123.271 45.3173 127.5 50.3943C130.742 54.2866 131.68 57.1669 133.5 61.8943C135.591 67.3256 136.42 70.5893 137 76.3803C137.422 80.5929 137 87.2214 137 87.2214L136 95.8943H133.5L131.5 76.3803L125 74.212L115.5 75.2961H104L93 74.212L87.5 74.8943L86 72.8943L85 75.2961L79.5 76.3803L67.5 75.2961L57 78.5485L53.5 95.8943Z" fill="black"/>
{{/Hair7}}
{{#Hair8}}
<path id="Hair8_2" fill-rule="evenodd" clip-rule="evenodd" d="M75.3799 55.6038C80.8487 56.1106 97.6339 57.9685 108.095 62.4514C109.501 63.0539 110.896 63.6281 112.266 64.192C120.408 67.5427 127.671 70.5318 131.095 76.9514C135.095 84.4514 135.095 132.451 135.095 132.451V176.451C135.095 176.451 148.777 127.827 148.595 95.9514C148.577 92.8309 148.707 90.0343 148.83 87.4005C149.161 80.2887 149.437 74.3636 146.595 66.4514C142.248 54.3491 136.992 49.5179 126.595 41.9514C119.955 37.119 115.915 34.4589 108.095 31.9514C107.425 31.7365 106.767 31.5233 106.122 31.3138C97.2473 28.4347 90.5363 26.2575 81.5949 29.9514C76.4334 32.0837 70.0949 38.4514 70.0949 38.4514L68.085 43.9786L67.5949 43.9514C67.5949 43.9514 57.0824 51.9878 52.5949 58.9514C47.5312 66.8091 46.6102 73.0324 45.3856 81.308C45.145 82.9339 44.8927 84.6391 44.5949 86.4514C43.6404 92.2606 43.388 95.5716 43.0949 101.451C42.0761 121.891 49.5949 153.451 49.5949 153.451L52.5949 171.451L56.5949 148.451C56.5949 148.451 56.1646 126.199 56.5949 111.951C56.6629 109.7 56.6912 107.716 56.7176 105.854C56.7877 100.931 56.8456 96.8616 57.5949 90.9514C57.885 88.6635 58.0419 86.5692 58.1901 84.5916C58.6325 78.6869 58.997 73.8223 62.5949 67.9514C65.9442 62.4861 73.9651 56.615 75.3799 55.6038Z" fill="#3F291B"/>
{{/Hair8}}
{{#Hair9}}
<path id="Hair9_2" d="M126.133 79.8889C114.711 62.2121 78.1327 55.3889 78.1327 55.3889C78.1327 55.3889 65.8338 62.8906 60.1327 69.8889C57.6327 84.3889 49.6327 119.889 49.6327 119.889L41.1327 108.389C41.1327 108.389 39.645 81.3826 46.6327 66.3889C50.5452 57.9937 53.4566 53.3088 60.1327 46.8889C69.5131 37.8684 76.8381 33.768 89.6327 31.3889C103.805 28.7536 113.759 29.4932 126.133 36.8889C140.967 45.7557 146.295 57.4315 149.633 74.3889C152.013 86.4831 147.633 105.889 147.633 105.889L135.5 126.5C135.5 126.5 134.758 93.2379 126.133 79.8889Z" fill="#D5D5D5"/>
{{/Hair9}}
{{#Hair10}}
<path id="Hair10_2" fill-rule="evenodd" clip-rule="evenodd" d="M94.5 58.0278C94.5 58.0278 111.204 54.856 118.5 62.0278C122.384 65.8456 123.425 69.575 124.704 74.1554C125.087 75.528 125.491 76.977 126 78.5278C129.095 87.9616 129.141 94.9541 129.196 103.173C129.219 106.646 129.243 110.339 129.5 114.528C130.053 123.556 127.208 132.908 124.541 141.674C120.068 156.375 116.098 169.425 129.5 176.528C134.524 179.19 143.5 180.528 143.5 180.528C143.5 180.528 147.225 138.49 146.5 111.528C146.402 107.869 146.436 104.642 146.468 101.611C146.548 93.9493 146.616 87.5331 144.5 78.5278C144.057 76.6427 143.671 74.8456 143.3 73.1217C141.326 63.9345 139.798 56.8243 132.5 49.5278C126.745 43.774 122.368 41.108 114.5 39.0278C113.206 38.6856 111.925 38.294 110.665 37.9084C104.571 36.0445 98.9447 34.3237 94.5 39.0278C94.2395 39.3035 94.0086 39.6094 93.8049 39.9411C93.5918 39.6107 93.3554 39.3048 93.0936 39.0278C88.6489 34.3237 83.0227 36.0445 76.9288 37.9084C75.6683 38.294 74.3878 38.6856 73.0936 39.0278C65.226 41.108 60.8487 43.774 55.0936 49.5278C47.7954 56.8243 46.2675 63.9345 44.2932 73.1217C43.9227 74.8456 43.5366 76.6427 43.0936 78.5278C40.9776 87.5331 41.0452 93.9493 41.126 101.611C41.158 104.642 41.192 107.869 41.0936 111.528C40.3686 138.49 44.0936 180.528 44.0936 180.528C44.0936 180.528 53.0694 179.19 58.0936 176.528C71.4957 169.425 67.5251 156.375 63.0527 141.674C60.3857 132.908 57.5402 123.556 58.0936 114.528C58.3504 110.339 58.3748 106.646 58.3978 103.173C58.4523 94.9541 58.4986 87.9616 61.5936 78.5278C62.1024 76.977 62.5069 75.528 62.8901 74.1553C64.1687 69.575 65.2099 65.8456 69.0936 62.0278C75.9879 55.2505 92.5402 57.2636 94.3404 57.5056C94.4399 57.8419 94.5 58.0278 94.5 58.0278Z" fill="#BB794E"/>
{{/Hair10}}
</g>
</g>
<defs>
<linearGradient id="paint0_linear" x1="95.5" y1="50" x2="95.5" y2="154" gradientUnits="userSpaceOnUse">
<stop stop-color="#BB794E"/>
<stop offset="1" stop-color="#D1B18A"/>
</linearGradient>
<linearGradient id="paint1_linear" x1="95.5" y1="50" x2="95.5" y2="154" gradientUnits="userSpaceOnUse">
<stop stop-color="#FFB482"/>
<stop offset="1" stop-color="#FFDEB8"/>
</linearGradient>
<linearGradient id="paint2_linear" x1="95.5" y1="50" x2="95.5" y2="153.671" gradientUnits="userSpaceOnUse">
<stop stop-color="#ECB26D"/>
<stop offset="1" stop-color="#D9C38B"/>
</linearGradient>
<linearGradient id="paint3_linear" x1="95.5" y1="50" x2="95.5" y2="154.015" gradientUnits="userSpaceOnUse">
<stop stop-color="#FFB482"/>
<stop offset="1" stop-color="#FFDEB8"/>
</linearGradient>
</defs>
</svg>
