<svg width="196" height="269" viewBox="0 0 196 269" fill="none" xmlns="http://www.w3.org/2000/svg" xmlns:xlink="http://www.w3.org/1999/xlink">
<g clip-path="url(#clip0)">
<rect width="195.679" height="268.043" fill="white"/>
<rect x="8" y="8" width="180" height="252" rx="16" stroke="#DEDEDE" stroke-width="16"/>
<circle cx="32" cy="33" r="11" fill="white"/>
<path d="M34.5 29.1111C34.5 30.5461 33.324 31.7222 31.8889 31.7222C30.4538 31.7222 29.2778 30.5461 29.2778 29.1111C29.2778 27.6762 30.4538 26.5 31.8889 26.5C33.324 26.5 34.5 27.6762 34.5 29.1111ZM28.5 36.1111C28.5 35.2494 28.8731 34.6183 29.4658 34.1869C30.0743 33.744 30.9355 33.5 31.8889 33.5C32.8423 33.5 33.7034 33.744 34.312 34.1869C34.9047 34.6183 35.2778 35.2494 35.2778 36.1111V39.5H28.5V36.1111Z" fill="white" stroke="black"/>
<text fill="black" xml:space="preserve" style="white-space: pre" font-family="Archivo Medium" font-size="12" letter-spacing="0em" text-anchor="middle"><tspan x="98" y="116.536">{{name}}</tspan></text>
<text fill="#8A8A8A" xml:space="preserve" style="white-space: pre" font-family="Archivo" font-size="6" font-weight="600" letter-spacing="0em"><tspan x="21" y="247.268">&#xa9; TwoPM Studios 2019</tspan></text>
<text fill="#8A8A8A" xml:space="preserve" style="white-space: pre" font-family="Archivo" font-size="6" font-weight="600" letter-spacing="0em"><tspan x="141.693" y="247.268">Night Shift!</tspan></text>
<rect x="63" y="123" width="71" height="13" rx="6.5" fill="#DEDEDE"/>
<text fill="black" xml:space="preserve" style="white-space: pre" font-family="Archivo Medium" font-size="8" letter-spacing="0em" text-anchor="middle"><tspan x="98" y="132.024">Critical Event</tspan></text>
<circle cx="164" cy="32" r="11" fill="#DEDEDE"/>
<text fill="black" xml:space="preserve" style="white-space: pre" font-family="Archivo Medium" font-size="14" letter-spacing="0em" text-anchor="middle"><tspan x="164" y="37.292">{{triage}}</tspan></text>
<text fill="black" xml:space="preserve" style="white-space: pre" font-family="Inconsolata" font-size="10" letter-spacing="0em" text-anchor="middle"><tspan x="98" y="153">{{jobs.0}}</tspan></text>
<text fill="black" xml:space="preserve" style="white-space: pre" font-family="Inconsolata" font-size="10" letter-spacing="0em" text-anchor="middle"><tspan x="98" y="162">{{jobs.1}}</tspan></text>
<text fill="black" xml:space="preserve" style="white-space: pre" font-family="Inconsolata" font-size="10" letter-spacing="0em" text-anchor="middle"><tspan x="98" y="171">{{jobs.2}}</tspan></text>
<text fill="black" xml:space="preserve" style="white-space: pre" font-family="Inconsolata" font-size="10" letter-spacing="0em" text-anchor="middle"><tspan x="98" y="180">{{jobs.3}}</tspan></text>
<text fill="black" xml:space="preserve" style="white-space: pre" font-family="Inconsolata" font-size="10" letter-spacing="0em" text-anchor="middle"><tspan x="98" y="189">{{jobs.4}}</tspan></text>
<text fill="black" xml:space="preserve" style="white-space: pre" font-family="Inconsolata" font-size="10" letter-spacing="0em" text-anchor="middle"><tspan x="98" y="198">{{jobs.5}}</tspan></text>
<text fill="black" xml:space="preserve" style="white-space: pre" font-family="Inconsolata" font-size="10" letter-spacing="0em" text-anchor="middle"><tspan x="98" y="207">{{jobs.6}}</tspan></text>
<g transform="translate(58,18)">
  {{{image}}}
</g>
</g>
<defs>
<filter id="filter0_d" x="76.7677" y="36.8857" width="42.2715" height="21.0286" filterUnits="userSpaceOnUse" color-interpolation-filters="sRGB">
<feFlood flood-opacity="0" result="BackgroundImageFix"/>
<feColorMatrix in="SourceAlpha" type="matrix" values="0 0 0 0 0 0 0 0 0 0 0 0 0 0 0 0 0 0 127 0"/>
<feOffset dy="2"/>
<feGaussianBlur stdDeviation="2"/>
<feColorMatrix type="matrix" values="0 0 0 0 0 0 0 0 0 0 0 0 0 0 0 0 0 0 0.1 0"/>
<feBlend mode="normal" in2="BackgroundImageFix" result="effect1_dropShadow"/>
<feBlend mode="normal" in="SourceGraphic" in2="effect1_dropShadow" result="shape"/>
</filter>
<clipPath id="clip0">
<rect width="195.679" height="268.043" fill="white"/>
</clipPath>
</defs>
</svg>
